<?xml version="1.0" encoding="utf-8"?>
<!-- Generator: Adobe Illustrator 24.0.2, SVG Export Plug-In . SVG Version: 6.00 Build 0)  -->
<svg version="1.1" id="Layer_1" xmlns="http://www.w3.org/2000/svg" xmlns:xlink="http://www.w3.org/1999/xlink" x="0px" y="0px"
	 viewBox="0 0 1823.395 1033.426" style="enable-background:new 0 0 1823.395 1033.426;" xml:space="preserve">
<style type="text/css">
	.st0{fill:white;}
	.st1{fill:rgb(0, 42, 96);}
</style>
<g>
	<path class="st0" d="M623.649,16.463c-1.125,0.55-2.211,1.213-3.383,1.632c-6.353,2.269-8.037,7.135-4.223,12.629
		c1.46,2.104,3.337,3.934,4.662,6.109c0.667,1.095,0.695,2.679,0.719,4.047c0.057,3.19-0.084,6.383-0.103,9.575
		c-0.025,3.974,3.296,6.047,5.305,8.787c1.091,1.488,1.49,1.87-0.04,3.313c-2.16,2.036-4.147,4.094-5.305,7.279
		c-1.151,3.165-4.257,5.794-6.94,8.166c-1.898,1.677-4.049,2.799-3.879,5.807c0.04,0.705-0.699,1.429-0.976,2.183
		c-0.343,0.933-1.038,2.056-0.783,2.835c1.418,4.338-1,7.065-3.678,9.807c-1.976,2.024-3.747,3.927-1.68,7.217
		c1.792,2.853-0.903,8.337-3.824,9.835c-1.574,0.807-2.671,2.574-3.921,3.964c-0.318,0.353-0.28,1.041-0.611,1.365
		c-2.985,2.923-4.543,7.258-9.057,8.706c-1.977,0.634-1.644,2.303-0.627,3.788c0.512,0.747,1.537,1.66,1.387,2.263
		c-1.505,6.049,3.173,9.658,5.667,13.947c2.209,3.798,3.407,7.779,3.505,11.88c0.07,2.898,1.373,4.024,3.624,5.162
		c-1.353,3.737-1.018,7.073,2.592,9.373c0.802,0.511,1.812,1.156,2.652,1.063c2.867-0.318,3.14,1.496,2.327,3.188
		c-0.88,1.832-0.286,2.734,0.766,4.07c0.686,0.872,0.925,2.278,0.952,3.454c0.094,4.118-0.196,8.257,0.132,12.35
		c0.086,1.068,1.891,1.992,2.894,2.996c0.731,0.732,1.441,1.484,2.161,2.228c-0.882,0.491-1.723,1.291-2.654,1.417
		c-3.279,0.442-1.304,2.509-1.36,3.986c-0.46,0.172-1.221,0.221-1.365,0.545c-1.532,3.442-4.131,2.777-6.932,2.071
		c-2.41-0.608-4.62-0.044-5.702,2.475c-1.012,2.356-0.492,4.42,1.639,6.023c0.905,0.681,1.757,1.455,2.532,2.281
		c0.994,1.06,2.899,2.783,2.648,3.231c-1.075,1.917-2.504,4.029-4.363,5.009c-2.16,1.139-2.265,2.05-1.109,3.75
		c0.975,1.433,1.977,2.847,3.255,4.684c-3.272,1.343-5.159,3.493-5.3,6.906c-0.016,0.377-1.074,0.932-1.704,1.024
		c-2.403,0.348-5.162-0.098-7.164,0.948c-2.668,1.393-4.879,3.785-6.969,6.042c-0.352,0.38,0.899,2.244,1.498,3.628
		c-3.917,0.68-4.869,3.746-5.076,7.33c-0.122,2.118-1.151,3.508-3.31,3.86c-1.853,0.302-2.807,1.172-3.138,3.188
		c-0.517,3.151-8.159,8.58-11.489,8.088c-3.847-0.568-6.665,0.607-8.685,4.059c-0.642-0.305-1.271-0.451-1.689-0.829
		c-2.183-1.976-4.194-1.36-6.485-0.034c-1.682,0.974-3.664,1.631-5.591,1.935c-3.141,0.494-4.917,2.572-5.266,7.005
		c-3.527,0.591-4.693,2.574-3.7,6.168c0.496,1.795,0.335,3.82,0.183,5.718c-0.052,0.651-0.867,1.432-1.53,1.807
		c-2.311,1.308-4.667,2.555-7.083,3.654c-2.781,1.265-5.629,2.392-8.491,3.465c-0.454,0.17-1.182-0.168-1.702-0.432
		c-1.93-0.978-3.897-1.912-5.722-3.066c-4.47-2.826-8.059-0.885-10.447,1.925c-1.53,1.802-3.051,1.817-5.171,1.658
		c-3.964-0.298-7.968-0.102-11.953-0.016c-0.531,0.012-1.227,0.457-1.546,0.912c-3.18,4.53-7.553,6.338-12.993,6.027
		c-2.194-0.125-3.34,1.083-2.899,3.312c0.97,4.904-0.451,8.241-5.268,10.505c-1.96,0.921-3.295,3.559-4.468,5.664
		c-1.225,2.201-1.199,4.281,0.513,6.794c2.007,2.946,2.91,6.668,4.124,10.113c0.273,0.775-0.09,1.806-0.26,2.7
		c-0.23,1.205-0.786,2.388-0.803,3.587c-0.066,4.828-1.882,9.111-3.758,13.424c-0.457,1.051-0.68,2.626-0.221,3.581
		c2.148,4.477,4.586,8.815,6.878,13.225c0.271,0.521,0.399,1.178,0.395,1.771c-0.026,3.952-0.925,8.049,2.708,11.567
		c-3.87,0.888-6.253,2.974-6.452,6.309c-0.15,2.516,0.416,5.288,1.444,7.598c0.939,2.11,2.719,1.593,4.877-1.129
		c1.011,3.047,0.708,3.516-2.226,3.94c-0.733,0.106-1.758,0.473-2.005,1.014c-0.244,0.534,0.221,1.495,0.571,2.167
		c0.318,0.609,0.9,1.079,1.552,1.823c-1.941,0.794-4.306,0.947-2.982,4.127c0.317,0.761-1.957,3.093-3.464,3.985
		c-1.564,0.926-2.834,1.409-2.404,3.61c0.125,0.641-0.682,1.664-1.319,2.213c-1.4,1.206-2.627,2.312-1.88,4.439
		c0.846,2.41-0.176,4.299-2.574,5.028c-2.363,0.718-5.581,5.71-5.603,8.1c-0.01,1.018-0.763,2.204-1.509,3.006
		c-1.696,1.823-3.086,3.36-1.542,6.188c0.743,1.36,0.39,3.432,0.226,5.153c-0.449,4.707-0.144,5.04,4.188,3.808
		c0.415,4.619-0.214,5.644-4.128,7.749c-0.754,0.406-1.182,1.55-1.575,2.436c-0.177,0.4,0.063,1.009,0.175,1.509
		c1.338,5.944-1.011,10.2-6.03,13.252c-3.243,1.972-6.134,4.234-6.98,8.26c-0.086,0.407-0.579,0.836-0.99,1.051
		c-3.736,1.958-4.033,2.584-2.959,6.55c0.131,0.483,0.253,0.968-0.41,1.014c-1.488,1.849-3.164,3.586-4.375,5.602
		c-0.508,0.845-0.29,2.362,0.045,3.434c1.208,3.877,1.555,7.608-0.314,11.443c-0.489,1.003-0.226,2.577,0.141,3.748
		c0.743,2.374,1.115,4.382-0.86,6.538c-1.892,2.066-3.241,4.63-4.826,6.977c-0.115,0.17-0.298,0.364-0.289,0.539
		c0.174,3.793-0.868,6.956-4.491,8.81c-2.032,6.512-7.671,9.361-13.085,11.944c-3.789,1.808-5.448,5.054-7.794,7.914
		c-1.044,1.273-1.712,2.922-2.917,3.982c-3.849,3.385-4.46,7.865-3.334,12.21c0.95,3.668-0.327,6.367-1.522,9.425
		c-0.791,2.024-0.992,4.271-1.666,6.351c-0.308,0.95-0.939,1.99-1.733,2.554c-3.168,2.248-5.634,10.401-3.646,13.769
		c1.317,2.231,0.953,3.593-0.984,4.894c-2.62,1.759-5.104,3.797-7.907,5.189c-5.402,2.683-7.351,6.298-6.82,12.455
		c0.338,3.925,1.498,8.424-1.819,11.489c-1.867,1.725-2.495,3.61-3.155,5.701c-0.78,2.473-0.302,4.532,1.764,6.397
		c4.428,3.999,4.766,8.948,1.285,13.766c-0.585,0.81-1.315,1.858-1.25,2.741c0.73,9.795-2.983,19.052-3.416,28.708
		c-0.082,1.818-0.895,3.911-2.051,5.318c-4.857,5.91-2.743,12.85,5.014,14.633c-1.25,2.05-2.313,4.096-3.658,5.936
		c-2.815,3.851-1.533,7.181,1.277,10.166c1.408,1.496,1.199,2.679,0.574,4.387c-1.09,2.977-1.698,6.128-2.726,9.131
		c-0.863,2.52-1.896,5.008-3.134,7.363c-0.627,1.194-1.714,2.323-2.869,3.03c-3.998,2.445-5.024,5.449-3.853,9.924
		c0.554,2.118,0.118,4.515,0.008,6.78c-0.06,1.224-0.629,2.457-0.531,3.649c0.282,3.436,0.742,6.735-2.366,9.444
		c-0.623,0.543-0.251,2.734,0.241,3.926c0.662,1.603,0.764,2.728-0.336,4.238c-0.895,1.228-1.296,2.907-1.604,4.448
		c-0.478,2.389-0.92,4.831-0.934,7.253c-0.009,1.536,0.305,3.814,1.314,4.473c2.814,1.839,3.051,5.145,5.031,7.37
		c1.678,1.886,1.482,3.833-0.377,5.44c-2.089,1.805-2.349,3.775-0.949,6.038c2.472,3.998,0.944,7.27-1.856,10.288
		c-1.617,1.743-3.301,3.424-4.981,5.108c-2.043,2.049-2.417,4.342-0.702,6.68c1.098,1.497,1.259,2.76,0.601,4.545
		c-1.144,3.107,0.11,6.545,2.704,8.589c0.648,0.51,1.361,0.956,1.935,1.539c1.406,1.428,1.28,2.506-0.813,3.061
		c-3.934,1.044-5.513,3.673-4.529,7.485c0.56,2.169-1.232,4.581-3.464,4.792c-0.97,0.092-1.955,0.33-2.868,0.674
		c-2.919,1.103-5.978,1.988-8.658,3.524c-2.583,1.481-4.83,3.591-7.051,5.616c-0.367,0.335-0.038,1.734,0.3,2.493
		c2.208,4.965,3.149,9.947,0.843,15.173c-0.399,0.905-0.599,2.028-0.487,3.005c0.375,3.283-1.156,5.51-3.964,6.632
		c-2.71,1.083-3.395,3.148-3.543,5.588c-0.206,3.399-0.244,6.809-0.291,10.216c-0.01,0.707,0.077,1.523,0.423,2.11
		c2.508,4.249,2.18,9.099,3.137,13.68c0.519,2.483,1.837,4.979,3.384,7.024c2.098,2.775,4.841,5.052,7.146,7.684
		c1.18,1.348,1.474,2.846-0.318,4.257c-1.35,1.063-1.755,2.489-0.389,4.022c1.417,1.59,2.787,0.936,4.11-0.004
		c1.077-0.766,2.046-1.685,3.214-2.664c1.935,2.267,4.264,3.916,4.979,7.341c0.686,3.286,2.848,6.264,4.501,9.667
		c-1.255,0-2.534,0.03-3.811-0.005c-15.188-0.41-30.377-0.773-45.562-1.261c-19.203-0.618-38.402-1.377-57.605-2.009
		c-24.479-0.806-48.959-1.566-73.44-2.309c-14.566-0.442-29.134-0.82-43.702-1.215c-10.021-0.272-20.042-0.588-30.065-0.738
		c-2.188-0.033-2.939-0.614-3.261-2.903c-0.873-6.207-2.164-12.355-3.29-18.526c-0.019-0.102-0.1-0.233-0.063-0.298
		c2.714-4.671-0.975-10.625,3.031-15.091c0.512-0.571,0.418-1.771,0.441-2.684c0.426-17.047,0.688-34.099,1.271-51.14
		c0.611-17.86,1.54-35.709,2.3-53.564c0.316-7.431,0.489-14.868,0.844-22.297c0.65-13.615,1.449-27.223,2.069-40.839
		c0.518-11.359,1.002-22.722,1.265-34.089c0.433-18.707,0.617-37.419,1.017-56.127c0.272-12.706,0.126-25.47,1.435-38.077
		c0.469-4.513-0.349-8.064-1.031-12.217c-0.806-4.905-3.092-7.948-6.282-10.855c-1.703-1.552-3.822-2.671-5.826-3.862
		c-1.901-1.13-2.398-2.678-1.807-4.708c0.8-2.747,0.314-5.168-1.222-7.66c-0.958-1.554-1.207-3.617-1.493-5.494
		c-0.337-2.213-0.966-3.415-3.614-2.799c-1.502,0.349-3.211-0.324-4.806-0.217c-4.593,0.307-9.178,0.746-13.757,1.218
		c-0.63,0.065-1.643,0.508-1.743,0.944c-0.51,2.226-0.767,4.51-1.138,6.769c-0.161,0.983-0.044,2.445-0.632,2.852
		c-2.834,1.957-2.442,4.764-2.415,7.529c0.008,0.827,0.086,1.664-0.013,2.479c-0.381,3.142-2.937,4.424-5.465,2.619
		c-2.325-1.659-4.614-3.428-6.606-5.455c-0.547-0.557-0.154-2.258,0.115-3.359c0.982-4.016,2.372-7.956,3.005-12.019
		c0.22-1.413-1.074-3.281-2.099-4.616c-1.534-2-1.203-3.89,0.324-5.267c3.505-3.163,3.465-7.767,5.097-11.662
		c0.962-2.296,0.909-5.018,1.313-7.548c0.049-0.306,0.015-0.667,0.169-0.907c2.424-3.784,4.661-7.714,7.387-11.27
		c1.962-2.56,3.659-4.945,3.126-8.353c-0.67-4.286,2.017-7.449,3.862-10.839c3.054-5.609,2.06-10.883-2.685-15.321
		c-1.542-1.442-2.429-3.597-3.561-5.46c-0.795-1.308-1.294-2.853-2.282-3.978c-2.572-2.928-2.559-5.868,0.311-8.499
		c0.761-0.697,1.637-1.286,2.317-2.052c1.315-1.482,1.7-3.202,0.207-4.724c-1.912-1.949-2.005-4.387-0.9-6.306
		c2.659-4.622,1.052-8.674-1.731-12.003c-4.18-5-5.012-11.193-7.157-16.908c-0.575-1.531-0.347-3.526-0.001-5.208
		c1.009-4.9,0.494-9.581-1-14.32c-0.596-1.892-0.498-4.1-0.3-6.124c0.3-3.059,1.017-6.075,1.461-9.124
		c0.645-4.426-0.5-8.172-4.36-10.806c-5.371-3.664-5.132-4.808-4.243-11.274c1.06-7.706,4.495-14.495,6.551-21.78
		c0.634-2.246,0.339-4.947-0.211-7.28c-0.552-2.343-0.47-4.055,1.204-5.932c3.542-3.974,3.832-9.013,4.019-14.02
		c0.015-0.407-0.192-0.898-0.03-1.213c2.449-4.768,3.528-10.27,8.44-13.692c1.931-1.345,3.094-3.934,4.32-6.118
		c2.434-4.339,4.232-8.885,9.491-11.155c1.828-0.789,2.404-4.471,3.56-6.827c2.961-6.038,0.091-11.581-1.266-17.331
		c-0.843-3.573-0.732-7.361-1.263-11.021c-0.629-4.336-1.01-8.795-2.367-12.915c-1.757-5.333-1.274-8.479,2.224-12.744
		c1.856-2.263,2.813-5.317,3.947-8.108c1.665-4.098,3.439-8.195,4.562-12.453c0.764-2.898,0.674-6.072,0.629-9.118
		c-0.036-2.433-0.566-4.86-0.901-7.286c-0.391-2.834-0.778-5.668-1.221-8.493c-0.316-2.013-0.496-4.09-1.149-5.997
		c-0.747-2.184-1.9-4.237-2.976-6.295c-0.516-0.987-1.844-1.881-1.804-2.771c0.204-4.501-3.584-7.28-4.557-11.099
		c-1.465-5.747-7.14-7.658-9.928-12.106c-2.337-3.728-4.406-7.277-3.586-12.142c0.4-2.375-0.484-5.601-1.974-7.521
		c-2.678-3.449-1.745-7.678-0.368-9.781c2.043-3.122,0.619-6.427,2.282-9.193c0.41-0.681,0.705-1.448,0.945-2.21
		c0.425-1.348,0.804-2.713,1.136-4.087c0.655-2.711,1.078-5.495,1.958-8.128c0.625-1.868,1.618-3.467,0.48-5.541
		c-0.499-0.91-0.361-2.216-0.367-3.343c-0.019-3.723,0.17-7.452,0.008-11.166c-0.136-3.104,0.146-5.911,2.302-8.403
		c0.828-0.957,1.121-2.397,1.586-3.643c1.245-3.343,1.976-6.783,4.712-9.568c2.797-2.846,2.14-9.61-0.843-12.926
		c-2.73-3.035-5.713-5.843-8.597-8.739c-3.049-3.061-4.915-6.545-4.025-11.036c0.08-0.402,0.063-0.941,0.315-1.172
		c5-4.581,3.861-11.265,5.9-16.846c0.984-2.693,2.616-5.297,4.505-7.463c1.463-1.678,2.345-3.167,2.352-5.413
		c0.017-5.679,0.368-11.359,0.286-17.035c-0.021-1.489-0.83-3.206-1.796-4.398c-2.682-3.31-3.755-6.539-1.996-10.816
		c2.552-6.204,2.317-6.196,9.127-6.374c23.146-0.604,46.287-1.533,69.437-1.86c16.119-0.227,32.25,0.527,48.375,0.495
		c27.908-0.055,55.814-0.495,83.722-0.53c9.706-0.012,19.613-0.397,29.074,1.33c15.255,2.784,30.487,1.055,45.704,1.775
		c13.918,0.658,27.825,1.597,41.749,2.055c7.839,0.258,15.701-0.197,23.553-0.344c9.714-0.181,19.428-0.441,29.143-0.544
		c8.79-0.094,17.583,0.046,26.373-0.069c2.435-0.032,4.862-0.606,7.294-0.924c0.511-0.067,1.087-0.278,1.532-0.126
		c5.937,2.036,11.844-0.376,17.783-0.098c6.605,0.309,13.237,0.163,19.854,0.056c27.388-0.442,54.776-0.962,82.164-1.419
		c14.885-0.248,29.77-0.431,44.656-0.625c0.866-0.011,1.733,0.14,2.6,0.216C623.523,15.973,623.586,16.218,623.649,16.463z"/>
</g>
<g>
	<g>
		<path class="st1" d="M419.172,356.495c13.9,0,30.578-6.623,45.802-18.204c18.834-14.403,39.086-45.104,39.439-88.077
			c0-0.06,0-0.119,0-0.178c0-12.356,0.297-39.663,0.583-66.07c0.29-26.737,0.564-51.994,0.564-63.747
			c23.12-4.959,24.94-21.64,24.94-26.705c0-9.087-6.179-24.466-29.34-24.466c-4.76,0-9.991,0.218-15.051,0.429
			c-5.079,0.212-10.331,0.431-15.052,0.431c-6.413,0-12.196-0.238-17.789-0.467c-4.901-0.202-9.531-0.392-14.031-0.392
			c-23.161,0-29.34,15.738-29.34,25.038c0,5.139,1.901,22.145,26.155,26.616c0.676,10.846,1.365,33.073,1.365,78.596
			c0,40.547-0.577,70.961-1.669,87.969c-0.21,2.898-0.527,5.093-0.868,6.71c-0.146-0.091-0.449-0.28-0.449-0.28
			c-4.702-2.984-13.859-6.779-20.423-6.779c-11.608,0-22.076,9.98-22.151,10.056c-0.527,0.527-12.921,13.078-12.921,26.74
			C378.937,343.323,399.741,356.495,419.172,356.495z"/>
		<path class="st1" d="M542.883,262.635c21.88,25.028,55.776,39.964,90.711,39.964c19.078,0,47.182-5.39,68.842-20.517
			c0.056-0.039,0.11-0.077,0.165-0.116c8.571-6.106,23.643-18.95,34.964-39.864c0.397,3.538,1.164,7.817,2.244,13.692
			c0.72,3.92,1.465,7.974,1.974,11.434l0.02-0.003c1.595,10.301,10.499,20.758,16.835,24.558c0.554,0.332,1.121,0.638,1.701,0.919
			c12.791,6.188,35.888,9.611,46.963,9.611c17.471,0,38.34-5.684,50.783-13.826c5.893-3.826,11.142-8.401,15.636-13.514
			c0.251,4.748,2.961,23.614,30.176,23.614c5.964,0,12.395-0.368,18.067-0.692c4.091-0.234,7.954-0.455,10.313-0.455
			c6.598,0,16.956,0.539,23.146,0.861c4.172,0.217,5.545,0.286,6.668,0.286c10.881,0,18.775-2.952,24.137-9.024
			c4.305-4.875,6.354-11.332,5.651-17.767c-1.863-17.591-17.854-22.452-23.875-24.11c-0.033-0.534-0.062-1.166-0.08-1.912
			c-0.003-2.25-0.04-6.267-0.086-11.137c-0.06-6.212-0.153-16.114-0.168-24.536c8.251,0.026,18.687,0.103,30.419,0.188
			c12.566,0.092,26.278,0.192,39.7,0.247c-0.209,10.708-0.581,21.806-0.951,29.591c-0.001,0.037-0.003,0.073-0.005,0.11
			c-0.138,3.258-0.293,5.839-0.465,7.726c-0.488,0.156-1.047,0.329-1.687,0.52c-16.178,4.525-21.95,16.337-21.95,25.922
			c0,9.193,6.059,24.752,28.769,24.752c3.238,0,8.737-0.329,17.409-0.871c6.049-0.378,13.576-0.848,16.131-0.848
			c4.616,0,9.84,0.269,14.447,0.506c3.688,0.189,6.874,0.354,9.348,0.354c28.794,0,29.625-22.219,29.625-24.752
			c0-4.297-1.509-18.855-20.929-25.79c-0.419-0.15-0.843-0.287-1.271-0.41c-0.248-0.072-0.533-0.154-0.845-0.244
			c-0.061-1.933-0.146-4.392-0.254-7.505c-0.33-9.45-0.782-22.393-0.782-29.98c0-53.927,1.039-78.659,1.989-89.993
			c5.232-1.391,9.297-3.337,12.47-5.55c3.087,2.32,7.108,4.336,12.347,5.708c0.328,9.611,0.789,29.209,0.789,59.448
			c0,52.391,8.044,79.486,29.682,99.97c0.085,0.081,0.171,0.161,0.258,0.241c11.371,10.418,35.605,22.584,66.481,22.584
			c20.359,0,37.799-4.012,51.836-11.925c9.495-5.288,17.516-12.344,24.1-21.218c-0.417,1.795-0.655,3.639-0.655,5.525
			c0,9.093,5.095,17.291,13.296,21.395c4.188,2.096,8.921,3.072,14.894,3.072c2.278,0,5.28-0.191,10.39-0.529
			c6.087-0.403,13.662-0.904,19.43-0.904c5.673,0,10.229,0.272,14.247,0.513c3.104,0.186,5.783,0.346,8.4,0.346
			c20.353,0,29.622-13.128,29.622-25.326c0-6.725-2.699-18.552-20.086-24.849c1.66-6.253,4.389-15.078,7.665-24.219
			c6.793-0.207,16.45-0.369,27.667-0.415c3.369,9.319,6.67,18.588,8.872,25.972c-11.383,4.822-16.575,14.634-16.575,23.511
			c0,9.3,6.422,25.041,30.49,25.041c3.873,0,6.93-0.145,9.885-0.285c3.143-0.149,6.109-0.289,10.467-0.289
			c6.14,0,12.855,0.385,19.35,0.758c6.049,0.347,11.763,0.675,16.773,0.675c24.29,0,30.771-15.919,30.771-25.326
			c0-6.947-2.862-19.497-22.036-25.49c-0.434-0.136-0.871-0.257-1.313-0.365c-2.5-0.611-4.129-1.074-4.853-1.378
			c-0.731-0.832-2.859-3.905-7.189-14.66c-0.026-0.068-0.055-0.136-0.082-0.204c-4.685-11.303-26.097-67.812-40.886-109.348
			c-0.021-0.057-0.041-0.113-0.062-0.17c-1.041-2.849-2.062-5.625-3.047-8.307c-4.016-10.925-7.483-20.361-9.146-25.967
			c-0.124-0.419-0.262-0.835-0.411-1.246c-2.157-5.925-7.887-21.666-24.882-21.666c-11.146,0-17.431,7.195-20.451,10.652
			l-0.38,0.434c-0.729,0.833-1.396,1.72-1.989,2.655c-1.588,2.497-3.591,5.893-5.359,8.888c-0.685,1.16-1.312,2.223-1.812,3.058
			c-0.282,0.47-0.547,0.952-0.792,1.442c-1.859,3.716-2.829,6.638-3.19,7.728c-0.244,0.735-0.462,1.468-0.693,2.274
			c-0.309,1.07-0.512,1.777-1.234,3.458c-0.044,0.103-0.088,0.207-0.13,0.31c-5.711,13.874-15.921,40.256-25.794,65.77
			c-10.798,27.903-21.963,56.756-25.271,64.089c-3.191,7.153-4.667,9.114-5.068,9.567c-1.056,0.613-4.6,1.816-7.467,2.789
			l-1.013,0.344c-4.656,1.562-8.701,3.928-11.974,6.861c8.8-17.869,13.554-40.988,14.389-69.66
			c0.229-5.921,0.639-14.533,1.073-23.649c0.654-13.715,1.33-27.894,1.512-35.527c0.089-2.688,0.313-4.411,0.509-5.447
			c0.553-0.197,1.313-0.441,2.34-0.728c0.492-0.137,0.978-0.292,1.458-0.463c12.925-4.615,20.641-14.149,20.641-25.504
			c0-9.193-6.059-24.752-28.767-24.752c-4.025,0-7.494,0.127-11.167,0.261c-4.224,0.154-8.591,0.313-14.632,0.313
			c-4.295,0-8.483-0.223-12.535-0.438c-4.061-0.216-7.896-0.421-11.833-0.421c-22.301,0-28.192,16.004-28.192,24.466
			c0,13.877,11.722,23.799,22.918,26.243c0.833,0.195,1.557,0.377,2.183,0.544c0.299,4.456,0.986,17.646,0.986,33.988
			c0,36.271-3.617,57.662-5.77,67.168c-4.784,21.049-24.354,23.321-32.546,23.321c-10.07,0-22.353-5.196-25.493-8.598
			c-4.475-5.052-10.529-12.083-10.529-40.324c0-6.088-0.006-11.934-0.012-17.503c-0.028-25.144-0.054-48.998,0.719-57.528
			c0.144-0.029,0.663-0.131,0.77-0.154c23.901-5.024,25.759-21.619,25.759-26.586c0-2.534-0.855-24.752-30.488-24.752
			c-3.071,0-6.788,0.112-11.093,0.242c-5.18,0.156-11.05,0.333-16.713,0.333c-4.626,0-8.584-0.187-12.775-0.385
			c-4.702-0.222-10.032-0.474-16.753-0.474c-8.062,0-14.394,2.002-19.122,5.157c-4.498-3.079-10.741-5.157-19.277-5.157
			c-1.566,0-3.729,0.096-7.735,0.28c-5.332,0.245-12.634,0.58-18.352,0.58c-3.9,0-11.843-0.194-18.226-0.35
			c-5.869-0.144-9.275-0.225-11.017-0.225c-29.63,0-30.485,22.219-30.485,24.752c0,4.623,1.646,20.174,22.843,26.219
			c0.107,0.031,0.215,0.061,0.322,0.089c0.365,7.797,0.512,22.67,0.514,33.544c-24.457,0.095-45.492,0.36-61.7,0.564
			c-2.928,0.037-5.698,0.072-8.303,0.103c0.095-12.603,0.395-29.167,0.852-34.198c0.004-0.047,0.008-0.095,0.012-0.143
			c21.233-5.003,23.586-19.863,23.586-26.18c0-9.193-6.481-24.752-30.773-24.752c-3.159,0-6.479,0.109-10.322,0.235
			c-4.851,0.159-10.349,0.339-16.913,0.339c-3.32,0-7.487-0.13-11.899-0.269c-4.8-0.15-9.763-0.306-14.188-0.306
			c-14.206,0-23.061,6.13-27.178,13.852c-2.988-5.219-7.652-10.005-14.129-12.167c-1.074-0.358-2.175-0.632-3.292-0.818
			c-0.623-0.104-2.463-0.516-3.94-0.847c-7.699-1.724-20.587-4.609-33.723-4.609c-23.295,0-42.407,6.571-56.811,19.532
			c-14.607,12.938-22.983,31.554-22.983,51.09c0,4.438,0.407,8.663,1.149,12.698c-14.51-48.67-60.409-83.321-116.276-83.321
			c-24.624,0-54.361,10.228-72.355,24.877c-30.047,24.145-45.28,55.739-45.28,93.906
			C513.663,213.51,524.039,241.597,542.883,262.635z M823.352,116.26c2.921,0,5.373,0.707,7.09,2.043
			c0.248,0.192,0.499,0.379,0.755,0.561c1.297,1.313,4.476,5.297,5.984,9.622c3.845,12.416,15.041,21.028,27.454,21.028
			c11.344,0,20.793-8.071,22.979-19.627c0.627-3.316,0.627-6.423,0.627-9.713c0-1.4-0.078-2.415-0.628-6.775
			c3.214,2.74,7.56,5.136,13.449,6.662c0.251,9.56,0.052,24.573-0.061,33.062c-0.042,3.193-0.073,5.647-0.073,6.9
			c0,47.662-1.808,78.613-2.377,87.189c-0.583,0.162-1.245,0.338-1.998,0.53c-0.114,0.029-0.228,0.059-0.341,0.09
			c-3.238,0.882-6.063,2.051-8.524,3.431c2.413-6.877,3.704-14.067,3.704-21.292c0-37.255-25.33-57.481-49.133-73.556l-3.144-2.104
			c-23.327-15.604-27.131-19.264-27.131-26.108C811.987,120.725,816.236,116.26,823.352,116.26z M797.86,210.265
			c0.038,0.024,0.075,0.049,0.113,0.073c17.156,10.949,25.855,19.677,25.855,25.941c0,8.317-4.771,13.087-13.09,13.087
			c-3.789,0-14.317-3.551-17.678-10.439c-5.227-11.569-13.132-28.836-30.195-28.836c-5.775,0-10.821,2.29-14.873,5.721
			c2.731-10.262,4.38-21.76,4.38-34.574c0-8.374-0.88-16.513-2.547-24.344C757.897,181.452,778.974,198.046,797.86,210.265z
			 M600.53,127.594c0.058-0.057,0.115-0.113,0.172-0.17c5.733-5.732,17.553-10.015,24.289-10.015
			c7.771,0,21.243,4.093,29.398,10.659c16.216,13.147,26.693,37.393,26.693,61.77c0,28.498-10.824,45.845-17.22,51.602
			c-0.515,0.463-1.007,0.951-1.475,1.461c-1.452,1.584-7.322,6.754-21.917,6.754c-19.317,0-32.612-13.452-38.817-21.47
			c-10.634-13.74-16.982-31.933-16.982-48.666C584.672,156.031,590.303,137.59,600.53,127.594z"/>
		<path class="st1" d="M208.022,609.226c5.652,0.402,7.513,0.529,9.027,0.529c0.655,0,1.31-0.029,1.962-0.089
			c5.027-0.459,10.554-1.868,15.16-3.868c16.729-7.261,18.029-20.853,18.029-24.845c0-4.748-1.523-16.627-15.639-24.373
			c-4.341-2.383-8.968-3.95-13.441-5.466c-2.526-0.856-5.14-1.741-6.874-2.53c-0.072-0.032-0.144-0.064-0.216-0.097
			c-2.104-0.928-7.027-3.101-7.027-16.238c0-0.058-0.332-41.5-0.332-41.5h26.754c0.05,0.091,0.1,0.182,0.151,0.274
			c4.772,8.636,13.657,24.71,31.024,24.71c13.055,0,27.105-10.205,27.105-32.611c0-2.396-0.089-6.313-0.193-10.851
			c-0.108-4.74-0.231-10.113-0.231-13.289c0-2.732,0.579-9.384,0.962-13.785c0.48-5.527,0.731-8.517,0.731-10.779
			c0-23.735-16.505-30.067-26.258-30.067c-12.854,0-20.875,8.843-25.185,13.594c-0.92,1.015-1.872,2.064-2.479,2.616
			c-0.1,0.09-0.739,0.693-0.739,0.693c-5.862,5.541-5.862,5.541-10.562,5.541h-21.122l0.296-48.701h38.615
			c9.747,0,14.05,2.01,15.316,2.762c3.798,7.866,14.689,26.438,32.969,27.268c1.933,11.039,10.06,20.658,21.085,24.34
			c0.332,0.111,0.667,0.214,1.005,0.308c2.166,0.608,4.174,1.153,6.033,1.658c1.968,0.534,4.185,1.136,6.047,1.685
			c0.063,1.349,0.108,3.139,0.108,5.506v91.054c0,1.243,0.007,2.463,0.015,3.659c0.022,3.513,0.052,8.127-0.303,10.479
			c-0.059,0.026-0.117,0.053-0.176,0.079c-1.597,0.726-3.593,1.524-5.705,2.371c-11.315,4.532-30.254,12.117-30.254,31.691
			c0,10.624,6.694,19.942,17.907,24.928c5.539,2.462,11.979,3.874,17.668,3.874c4.919,0,11.672-0.575,19.491-1.242
			c7.138-0.608,15.229-1.299,19.897-1.299c14.79,0,29.949,0.65,44.609,1.278c14.482,0.621,29.458,1.263,43.903,1.263
			c12.574,0,20.786-8.674,26.381-18.313c5.148,11.007,18.293,17.034,31.348,18.225c0.652,0.06,1.307,0.089,1.962,0.089
			c1.956,0,3.984-0.213,7.666-0.599c6.915-0.727,18.489-1.942,31.722-1.942c13.704,0,27.464,1.283,34.856,1.973
			c4.058,0.379,6.094,0.568,7.918,0.568c0.655,0,1.31-0.029,1.962-0.089c5.027-0.459,10.554-1.868,15.16-3.868
			c9.164-3.978,13.698-9.854,15.926-15.013c3.421,3.936,7.048,7.873,10.969,11.794c15.111,15.113,38.27,21.996,53.391,21.996
			c13.456,0,23.933-1.988,32.028-6.079c12.213-6.171,19.217-17.229,19.217-30.341c0-1.07-0.071-2.124-0.19-3.166
			c20.916,18.222,47.111,28.15,74.836,28.15c28.799,0,54.56-10.098,73.79-18.898c6.402-2.932,12.449-5.701,17.025-11.915
			c5.743-7.798,5.36-15.683,5.081-21.438c-0.085-1.754-0.182-3.742-0.182-6.191V533.16c0.262-0.101,0.555-0.206,0.883-0.315
			c12.25-4.072,21.141-16.433,21.141-29.392c0-14.522-11.201-29.223-32.611-29.223c-8.751,0-13.521,0.711-17.353,1.283
			c-3.12,0.466-5.585,0.834-11.448,0.834c-6.463,0-11.087-0.433-16.442-0.934c-5.938-0.555-12.666-1.184-22.098-1.184
			c-21.104,0-36.421,12.29-36.421,29.223c0,13.065,8.854,25.147,21.531,29.382c0.333,0.111,0.669,0.215,1.008,0.31
			c3.847,1.079,8.521,2.391,12.188,3.529v11.751c-1.66,0.802-4.275,1.614-7.198,1.614c-26.582,0-38.539-34.426-38.539-58.87
			c0-29.56,15.684-60.134,41.928-60.134c11.979,0,21.853,4.494,23.896,6.948c3.012,8.237,5.849,14.837,9.795,20.191
			c8.23,11.172,18.693,13.517,26.021,13.517c4.775,0,16.572-1.645,22.963-16.877c1.49-3.552,2.738-7.849,3.816-13.138
			c1.238-6.077,2.121-12.928,2.558-19.457c3.73,4.636,8.758,8.286,14.622,10.244c0.332,0.111,0.667,0.214,1.005,0.308
			c2.166,0.608,4.174,1.153,6.033,1.658c1.967,0.534,4.185,1.136,6.047,1.684c0.063,1.349,0.108,3.14,0.108,5.507v58.019
			c0,29.661,8.999,57.313,25.341,77.86c18.714,23.531,46.264,36.489,77.573,36.489c29.999,0,57.395-12.068,77.138-33.981
			c18.807-20.874,29.164-48.964,29.164-79.096v-58.446c0-4.425,0.446-6.077,0.613-6.54c0.419-0.345,2.222-1.624,7.302-3.027
			c7.854-1.937,14.153-6.355,18.237-12.376c-2.459,7.059-3.734,14.56-3.734,22.367c0,22.499,8.686,53.577,50.043,73.947l1.053,0.537
			c14.218,7.247,31.914,16.267,31.914,25.464c0,3.259-1.782,6.777-4.66,6.777c-9.225,0-15.542-6.365-24.128-16.075
			c-7.205-8.148-15.372-17.384-28.81-17.384c-16.197,0-27.953,12.112-27.953,28.802c0,11.771,4.283,31.05,7.232,39.152
			c6.939,19.059,36.13,29.03,61.378,29.03c24.198,0,47.409-5.842,65.357-16.45c20.1-11.879,32.526-29.197,35.821-49.522
			c5.371,11.528,12.629,22.172,21.621,31.51c21.399,22.224,50.124,34.462,80.882,34.462c36.102,0,70.062-13.86,95.624-39.028
			c25.732-25.335,39.903-59.152,39.903-95.223c0-31.391-13.323-60.313-37.516-81.438c-22.741-19.858-52.586-30.795-84.035-30.795
			c-67.975,0-123.69,54.728-127.285,123.386c-0.454-0.693-0.918-1.384-1.407-2.072c-8.698-12.232-21.723-22.219-43.601-33.417
			c-11.55-5.873-20.098-10.352-24.905-14.526c-2.806-2.437-3.069-3.567-3.094-5.118c0.371-0.212,1.08-0.489,2.117-0.489
			c7.229,0,11.185,2.584,11.879,3.764c6.836,11.604,17.942,18.259,30.471,18.259c5.348,0,23.106-2.078,27.131-28.813
			c1.1-7.301,1.247-15.651,1.247-22.856c0-13.072-10.045-24.942-24.996-29.538c-0.366-0.113-0.735-0.215-1.107-0.309
			c-2.033-0.508-4.022-1.271-6.541-2.236c-6.646-2.547-15.748-6.036-30.036-6.036c-22.62,0-44.404,6.351-61.339,17.881
			c-10.61,7.225-18.782,16.158-24.249,26.287c0.595-2.459,0.91-5.05,0.91-7.744c0-16.933-15.317-29.223-36.421-29.223
			c-5.356,0-11.092,0.597-16.638,1.175c-4.448,0.463-9.049,0.942-12.163,0.942c-3.221,0-6.729-0.456-10.445-0.939
			c-4.452-0.579-9.056-1.177-14.118-1.177c-19.662,0-34.302,10.668-36.21,25.821c-1.908-15.152-16.548-25.821-36.21-25.821
			c-8.118,0-14.519,0.577-20.708,1.134c-5.612,0.505-10.912,0.983-17.408,0.983c-6.463,0-11.087-0.432-16.442-0.933
			c-5.937-0.555-12.666-1.184-22.098-1.184c-16.814,0-29.944,7.806-34.591,19.541c-3.502-6.178-8.762-11.58-15.987-14.751
			c-10.193-4.479-31.975-11.992-63.321-11.992c-33.964,0-67.76,13.464-92.724,36.941c-25.962,24.416-40.26,56.719-40.26,90.961
			c0,23.753,6.946,46.579,19.846,66.053c-1.954-0.762-3.992-1.477-6.159-2.231c-3.242-1.129-6.917-2.408-10.861-4.083
			c-6.341-2.691-16.668-15.933-25.78-27.614c-6.219-7.974-12.901-16.542-20.42-24.926c4.125-3.372,7.853-7.221,11.124-11.507
			c9.393-12.306,14.356-27.364,14.356-43.547c0-21.557-9.57-41.041-26.947-54.862c-15.268-12.143-35.179-18.831-56.064-18.831
			c-8.936,0-17.788,0.816-26.349,1.604c-7.593,0.7-14.766,1.36-21.082,1.36c-6.463,0-11.088-0.432-16.443-0.933
			c-5.937-0.555-12.666-1.184-22.097-1.184c-21.103,0-36.421,12.29-36.421,29.223c0,13.067,8.854,25.149,21.533,29.383
			c0.332,0.111,0.667,0.214,1.005,0.308c2.166,0.608,4.174,1.153,6.034,1.659c1.967,0.534,4.185,1.136,6.047,1.684
			c0.063,1.349,0.108,3.139,0.108,5.506v91.054c0,1.243,0.007,2.463,0.015,3.659c0.022,3.513,0.052,8.126-0.303,10.479
			c-0.06,0.026-0.118,0.053-0.177,0.079c-1.598,0.726-3.594,1.525-5.707,2.372c-4.484,1.796-10.162,4.076-15.387,7.386
			c0.757-4.016,1.254-8.159,1.254-12.116c0-23.815-13.86-35.569-27.778-37.097c0.25-4.808,0.25-10.369,0.25-17.112
			c0-12.388-0.342-19.365-1.22-24.887c-0.541-3.401-1.371-6.343-2.409-8.887c10.642-4.952,17.604-17.038,17.604-32.296
			c0-3.934-1.055-19.312-3.5-27.123l-0.247-0.828c-2.175-7.287-6.7-22.451-27.609-22.451l-1.679,0.003
			c-9.582,0-27.129,0.463-44.099,0.912c-15.21,0.402-29.577,0.781-36.367,0.781c-6.663,0-11.381-0.353-16.842-0.761
			c-5.844-0.437-12.468-0.932-21.698-0.932c-2.186,0-4.306,0.139-6.357,0.394c-0.247-7.539-2.29-29.842-4.371-38.428
			c-2.568-10.951-12.293-22.529-32.025-22.529c-3.641,0-9.506,0.339-16.931,0.768c-10.399,0.601-23.342,1.349-33.469,1.349H120.49
			c-28.753,0-36.425,18.371-36.425,29.226c0,12.836,8.053,23.187,21.541,27.688c0.331,0.11,0.665,0.213,1.001,0.307
			c2.285,0.642,4.452,1.228,6.504,1.783c4.336,1.172,9.558,2.584,12.154,3.67c0.15,0.971,0.305,2.583,0.305,5.088v149.5
			c0,12.713-4.924,14.886-7.026,15.813c-0.072,0.032-0.145,0.064-0.216,0.097c-1.735,0.789-4.347,1.674-6.874,2.53
			c-4.474,1.516-9.101,3.083-13.442,5.466c-14.115,7.746-15.639,19.625-15.639,24.373c0,17.719,16.883,27.188,33.616,28.713
			c0.652,0.06,1.306,0.089,1.96,0.089c1.589,0,3.353-0.131,8.689-0.546c8.961-0.697,25.642-1.995,39.167-1.995
			C179.75,607.214,198.142,608.523,208.022,609.226z M1457.084,429.338c26.6,0,44.469,31.096,44.469,60.138
			c0,25.674-10.776,61.831-34.733,61.831c-29.924,0-41.076-43.899-41.076-71.57C1425.743,459.412,1435.704,429.338,1457.084,429.338
			z M1031.078,441.621c0-2.278,0.051-3.999,0.121-5.288c1.926-0.571,4.28-1.206,6.356-1.766c2.015-0.543,4.197-1.132,6.56-1.795
			c0.338-0.094,0.673-0.197,1.005-0.308c11.305-3.775,19.509-14.111,20.9-25.845c1.523,12.62,11.086,23.588,24.3,27.382
			c2.146,1.216,5.978,6.104,5.978,10.161v69.03c0,34.306-24.545,34.306-32.61,34.306c-17.676,0-32.609-16.485-32.609-35.998V441.621
			z M597.318,439.474c4.512,1.702,8.048,5.044,8.048,9.345c0,5.521-3.394,10.841-8.048,13.769V439.474z M409.726,436.961h13.883
			c1.477,2.966,3.064,5.541,4.723,7.778c-5.182,3.362-8.503,7.841-10.38,10.372c-0.521,0.704-1.184,1.597-1.669,2.176
			c-0.063,0.002-6.557,0.003-6.557,0.003V436.961z M409.726,522.087c0,0,5.551,0.001,5.572,0.001
			c0.508,0.685,1.177,1.716,1.666,2.47c2.325,3.581,6.96,10.72,15.247,14.185c-0.177,0.389-0.352,0.768-0.525,1.133h-21.96V522.087z
			"/>
		<path class="st1" d="M1796.708,373.858c-5.066,0-9.672,0.564-14.127,1.11c-4.224,0.518-8.214,1.006-12.55,1.006
			c-5.081,0-11.063-0.605-16.341-1.139c-5.183-0.524-9.659-0.978-13.729-0.978c-21.69,0-33.039,14.701-33.039,29.223
			c0,13.074,8.86,25.158,21.562,29.391c6.527,2.171,7.239,3.772,7.239,9.149v17.229l-43.332-53.673
			c-10.509-13.01-23.588-29.202-43.066-29.202c-5.961,0-10.567-0.423-15.901-0.913c-6.141-0.564-13.101-1.204-22.635-1.204
			c-21.106,0-36.425,12.29-36.425,29.223c0,13.177,8.923,25.281,21.703,29.438c7.937,2.579,12.805,5.824,16.166,8.654
			c0.422,1.662,1.096,5.453,1.096,12.729v78.773c0,1.243,0.007,2.463,0.015,3.659c0.022,3.513,0.051,8.127-0.303,10.479
			c-0.061,0.026-0.12,0.054-0.181,0.081c-1.597,0.726-3.593,1.525-5.706,2.372c-11.313,4.532-30.245,12.117-30.245,31.688
			c0,17.719,16.883,27.188,33.615,28.713c0.652,0.06,1.307,0.089,1.961,0.089c2.194,0,4.239-0.26,7.335-0.654
			c5.544-0.705,14.822-1.887,27.816-1.887c13.149,0,21.094,1.153,25.84,1.843c2.69,0.391,4.815,0.698,7.194,0.698
			c0.655,0,1.311-0.029,1.963-0.089c5.026-0.459,10.552-1.869,15.157-3.868c16.729-7.262,18.028-20.853,18.028-24.845
			c0-7.029-2.525-17.16-14.559-25.508c-4.803-3.331-10.18-5.771-15.38-8.13c0,0-1.32-0.598-1.395-0.633
			c-0.457-2.394-0.441-7.564-0.431-11.467l0.005-2.542v-10.366l39.026,48.837c23.203,29.04,36.771,41.995,55.839,41.995
			c6.794,0,22.97-2.857,26.444-29.333c0.956-7.287,1.085-15.593,1.085-22.756c0-5.17-0.624-12.033-1.347-19.98
			c-0.759-8.333-1.618-17.777-1.618-24.49v-75.808c0-5.414,3.606-7.613,4.991-8.003c12.606-3.543,22.113-16.306,22.113-29.689
			C1830.594,386.148,1816.344,373.858,1796.708,373.858z"/>
		<path class="st1" d="M528.555,731.97c-10.055,0-19.816,3.973-29.566,12.081c-6.124-7.435-15.316-12.081-25.764-12.081
			c-14.709,0-28.998,7.97-39.494,21.114c-8.368-12.304-21.614-21.114-38.472-21.114c-13.6,0-27.164,4.427-39.795,12.872
			c-3.771-5.811-9.847-10.184-17.66-10.793c4.065-11.175,8.202-20.953,11.509-26.962c3.32,9.378,12,15.907,22.443,15.907
			c16.387,0,35.032-16.625,35.639-40.494c0.309-10.352-3.493-20.152-10.71-27.605c-7.901-8.16-19.3-12.653-32.096-12.653
			c-13.24,0-26.429,4.708-40.314,14.394c-19.377,13.096-36.717,39.643-51.631,79.007c-1.877,0.031-3.623,0.054-4.952,0.054
			c-14.407,0-27.045,13.309-27.045,28.48c0,10.402,6.525,19.31,15.697,22.843c-9.88,33.904-20.972,74.481-29.292,105.427
			c-0.018,0.066-0.035,0.134-0.053,0.2c-2.444,9.452-4.658,15.231-6.287,18.674c-0.03-0.038-0.061-0.076-0.091-0.114
			c-5.019-6.263-13.044-10.152-20.945-10.152c-0.922,0-1.84,0.053-2.748,0.157c-7.467,0.681-14.649,4.757-21.382,12.143
			c-6.656,7.302-10.116,14.689-10.289,21.966c-0.265,8.44,2.887,16.521,8.896,22.787c7.6,7.925,19.235,12.289,32.763,12.289
			c11.375,0,31.764-7.573,44.526-16.538c0.255-0.18,0.507-0.365,0.754-0.556c0.649-0.499,1.348-1.004,2.083-1.539
			c8.493-6.184,24.303-17.694,33.821-49.527c0.039-0.132,0.077-0.265,0.114-0.397l2.561-9.21
			c3.314-11.924,7.409-26.655,11.686-41.889c1.438,11.41,6.175,21.844,13.709,29.931c8.823,9.471,20.618,14.901,32.361,14.901
			c14.332,0,25.239-4.353,33.14-8.146c0.136-0.065,0.271-0.132,0.404-0.199c14.717-7.447,28.581-19.729,39.442-34.844l-2.227,5.67
			l0.009,0.004c-2.273,5.898-3.191,15.54,1.618,23.398c5.082,8.681,14.938,14.404,25.074,14.404c6.175,0,21.576-2.182,31.414-22.37
			c9.53-19.061,26.913-52.886,36.3-68.269c3.816,2.159,8.097,3.203,12.268,3.203c18.889,0,35.073-23.698,35.073-43.099
			C561.048,746.309,547.079,731.97,528.555,731.97z"/>
		<path class="st1" d="M1678.886,801.632c-1.784,0-3.461,0.159-5.039,0.452c0.059-1.454,0.034-2.936-0.074-4.438
			c-0.259-3.926-0.52-10.542-0.52-16.556c0-5.256,0.25-11.008,0.497-13.974c0.007-0.082,0.014-0.164,0.02-0.246
			c0.287-3.999,0.138-7.714-0.443-11.133c8.425-4.342,15.122-13.652,15.122-27.396c0-4.913-0.819-13.362-1.522-19.105
			c-1.701-13.917-3.21-18.459-5.567-22.39c-0.18-0.3-0.366-0.595-0.56-0.885c-5.189-7.773-13.695-12.231-23.336-12.231
			c-0.951,0-1.923,0.044-2.888,0.132c-0.589,0.053-1.174,0.131-1.756,0.231c-4.637,0.808-8.806,1.113-34.423,1.113h-29.522
			c-12.118,0-27.671-0.625-37.962-1.038c-6.471-0.26-9.939-0.395-11.923-0.395c-5.986,0-11.465,1.38-16.076,3.819
			c-1.299-1.553-2.768-3.037-4.416-4.427c-6.062-5.112-12.277-7.704-18.476-7.704c-8.913,0-15.316,4.66-20.016,9.214
			c-2.206,0.255-5.998,0.53-12.093,0.53h-90.874c-8.973,0-9.51,0-20.743-0.545c-0.099-0.005-0.197-0.01-0.297-0.013
			c-2.626-0.092-3.445-0.358-3.45-0.358c-0.014-0.007-0.23-0.111-0.801-0.521c-3.239-2.802-10.445-8.022-19.146-8.022
			c-7.559,0-15.126,3.452-20.76,9.473c-5.484,5.86-8.309,13.247-7.997,20.872c0.118,7.602-0.785,15.014-1.583,21.563
			c-0.587,4.818-1.142,9.369-1.281,13.72c-0.008,0.23-0.011,0.461-0.011,0.692c0,19.015,12.366,33.354,28.766,33.354
			c12.278,0,23.019-8.755,28.058-22.857c1.374-3.741,2.516-5.998,3.283-7.29c2.307-0.092,6.171-0.148,10.415-0.184v27.364
			c0,18.332-0.392,40.289-0.651,54.819c-0.127,7.146-0.211,11.866-0.211,13.984c0,0.65-0.01,1.217-0.025,1.71
			c-1.532,0.508-3.798,1.181-7.139,2.068c-0.045,0.012-0.09,0.024-0.135,0.036c-8.454,2.305-15.245,6.749-19.621,12.47
			c-3.579-4.321-8.671-8.192-15.638-10.918l-2.011-0.772c-2.021-0.774-4.48-1.717-5.543-2.252c-0.43-0.62-1.449-2.306-3.276-6.471
			l-1.699-4.142c-9.007-21.944-30.1-73.334-44.057-111.521c-0.049-0.134-0.099-0.268-0.15-0.4c-1.86-4.793-3.319-8.873-4.606-12.474
			c-2.124-5.942-3.659-10.236-5.686-14.052c-7.222-13.6-18.712-15.067-23.317-15.067c-6.787,0-15.253,3.401-20.835,8.252
			c-0.987,0.755-4.506,3.328-15.799,10.854c-1.185,0.789-2.288,1.693-3.294,2.7c-2.404,2.404-7.766,8.636-8.528,17.006
			c-0.044,0.396-0.093,0.724-0.134,0.963c-0.003,0.009-0.007,0.018-0.01,0.026c-16,42.57-39.3,101.589-46.58,116.981
			c-3.625,7.54-3.699,7.658-11.919,10.666c-3.106,1.023-5.786,2.243-8.119,3.588c-0.074-1.916-0.151-3.826-0.229-5.718
			c-0.28-6.801-0.546-13.225-0.546-19.016c0-18.992,1.738-66.175,2.55-85.684c0.281-0.12,0.58-0.245,0.898-0.376
			c8-3.251,24.646-10.018,24.646-28.323c0-13.868-10.768-27.907-31.348-27.907c-2.886,0-6.953,0.243-13.894,0.674
			c-7.5,0.466-16.834,1.045-23.086,1.045c-3.323,0-5.544-0.063-7.895-0.129c-2.622-0.073-5.594-0.156-10.167-0.156
			c-17.284,0-31.345,12.262-31.345,27.333c0,10.749,7.991,24.313,25.539,28.696c0.222,0.056,0.445,0.107,0.669,0.156
			c1.632,0.353,2.883,0.672,3.829,0.943c0.206,2.251,0.36,5.267,0.493,7.879c0.055,1.071,0.111,2.185,0.176,3.374
			c0.265,4.768,0.429,10.066,0.514,15.478c-11.62-12.374-23.634-25.349-30.438-32.696c-3.206-3.464-5.969-6.446-8.032-8.666
			c-17.646-19.119-23.748-26.829-25.815-29.725l-0.001,0.002c-4.499-6.234-14.65-12.489-24.455-12.489
			c-7.528,0-17.293-0.546-26.736-1.074c-8.557-0.479-16.639-0.93-22.572-0.93c-10.457,0-19.429,4.931-24.378,12.457
			c-5.207-7.583-13.607-11.93-23.12-11.93c-0.951,0-1.924,0.044-2.89,0.132c-0.587,0.054-1.171,0.131-1.751,0.231
			c-4.64,0.808-8.81,1.113-34.424,1.113h-29.528c-12.117,0-27.671-0.625-37.963-1.038c-6.469-0.26-9.937-0.395-11.919-0.395
			c-12.034,0-22.014,5.577-27.018,14.125c-3.463-4.948-8.402-8.794-14.713-10.171c-2.031-0.486-4.324-1.097-6.745-1.74
			c-10.424-2.773-23.396-6.225-38.08-6.225c-18.218,0-35.426,4.211-49.764,12.178c-0.209,0.116-0.416,0.235-0.621,0.358
			c-22.545,13.524-36.004,35.667-36.004,59.231c0,24.421,10.121,41.773,24.799,55.35c-0.852-0.079-1.727-0.12-2.626-0.12
			c-15.809,0-28.191,14.523-28.191,33.065c0,8.905,0.988,25.778,7.581,39.178c4.425,9.351,12.641,14.353,16.207,16.166
			c9.821,5.081,29.786,10.977,53.998,10.977c17.044,0,39.352-6.016,53.042-14.304c0.103-0.062,0.205-0.125,0.307-0.188
			c4.901-3.079,9.34-6.538,13.286-10.314c2.001,9.303,10.102,20.795,31.391,20.795c5.85,0,14.979-0.231,25.551-0.499
			c12.003-0.304,25.606-0.649,35.224-0.649c38.178,0,53.437,0.762,61.634,1.17c3.071,0.153,5.29,0.264,7.455,0.264
			c5.393,0,14.749-2.759,21.656-9.024c5.408,5.382,13.608,9.024,24.483,9.024c2.159,0,4.562-0.194,7.888-0.464
			c5.05-0.409,11.967-0.97,19.922-0.97c5.551,0,10.357,0.309,15.006,0.606c4.347,0.279,8.452,0.542,12.8,0.542
			c21.342,0,31.062-13.872,31.062-26.762c0-8.28-3.499-15.929-9.854-21.534c-4.034-3.561-9.054-6.291-16.236-8.841
			c-0.104-0.037-0.203-0.073-0.298-0.108c-0.388-2.003-0.867-5.938-1.147-13.607c-0.129-3.474-0.334-11.856-0.511-21.021
			c15.675,17.315,31.559,34.96,37.11,41.39c0.106,0.122,0.214,0.244,0.322,0.364c7.533,8.337,21.205,24.494,30.844,36.177
			c9.568,11.777,22.343,18.528,35.065,18.528c9.074,0,17.109-4.533,22.227-12.177c5.343,4.745,13.059,7.877,23.053,7.877
			c6.636,0,12.728-0.423,18.103-0.797c4.709-0.327,9.157-0.637,13.432-0.637c4.889,0,9.687,0.304,13.542,0.547
			c2.768,0.175,4.953,0.313,6.813,0.313c10.414,0,19.969-4.232,26.216-11.613c0.992-1.173,1.872-2.393,2.635-3.648
			c4.32,8.715,14.028,15.551,28.772,15.551c5.32,0,9.438-0.291,13.421-0.572c4.19-0.296,8.148-0.576,14.1-0.576
			c6.969,0,15.346,0.388,23.445,0.763c7.471,0.345,14.527,0.671,20.127,0.671c12.234,0,20.605-4.497,25.496-10.7
			c5.863,6.263,14.83,10.126,25.235,10.126c3.962,0,8.846-0.189,14.017-0.391c5.914-0.23,12.03-0.469,17.521-0.469
			c11.772,0,29.008,0.704,39.307,1.124c5.634,0.23,7.644,0.31,8.854,0.31c22.719,0,33.066-14.764,33.066-28.48
			c0-18.436-17.086-25.081-23.563-27.601c-0.783-0.303-1.538-0.59-2.266-0.866c-0.726-0.275-1.523-0.579-2.26-0.867
			c-0.207-1.276-0.442-3.186-0.633-5.97c-0.012-0.172-0.026-0.344-0.042-0.516c-0.859-9.281-0.817-25.668-0.779-40.126
			c0.008-3.033,0.015-6.021,0.015-8.909c0-11.67,0.588-30.563,1.127-43.784c6.966,0.254,10.234,0.637,12.326,0.912
			c0.347,1.122,0.759,2.628,1.212,4.614c3.451,15.466,14.19,25.455,27.377,25.455c16.652,0,30.199-14.575,30.199-32.491
			c0-2.496,0.069-4.976,0.184-7.4c2.148,0.945,4.474,1.747,7.037,2.329c0.351,0.089,0.676,0.174,0.977,0.256
			c0.345,7.881,0.761,25.301,0.761,49.822c0,36.914-0.209,46.735-0.829,56.301c-1.309,0.448-3.086,0.985-5.458,1.578
			c-0.232,0.059-0.465,0.12-0.696,0.187c-14.74,4.213-24.264,15.854-24.264,29.656c0,9.514,6.722,25.614,31.918,25.614
			c5.852,0,14.982-0.231,25.555-0.499c12.001-0.305,25.604-0.649,35.22-0.649c38.175,0,53.434,0.762,61.631,1.17
			c3.072,0.153,5.292,0.264,7.458,0.264c7.737,0,23.65-5.674,28.756-19.26c1.889-4.554,8.637-21.6,10.744-31.794
			c0.01-0.045,0.019-0.089,0.027-0.134c0.848-4.234,2.906-18.913-6.19-30.011C1694.043,805.126,1686.698,801.632,1678.886,801.632z
			 M665.728,838.121c-0.347,0.509-2.038,1.352-3.313,1.352c-8.831,0-18.345-8.057-24.829-21.025
			c-0.114-0.23-0.234-0.459-0.357-0.685c-0.479-0.88-1.081-1.982-1.817-3.219c3.157,1.89,6.368,3.71,9.608,5.482
			c17.57,9.984,20.358,14.705,20.631,15.239c0.034,0.184,0.105,0.75,0.105,2.3C665.757,837.919,665.716,838.121,665.728,838.121
			C665.727,838.121,665.727,838.121,665.728,838.121z M681.125,742.793c-16.068-8.651-16.314-12.396-16.318-14.635
			c0.176-0.786,1.6-2.583,3.055-2.583c7.405,0,13.49,8.18,16.235,16.286c0.076,0.224,0.155,0.446,0.238,0.667
			c0.321,0.855,0.664,1.688,1.026,2.499C683.947,744.273,682.533,743.529,681.125,742.793z M754.638,835.098
			c-1.309,0.447-3.086,0.984-5.46,1.578c-0.234,0.059-0.469,0.121-0.701,0.188c-1.402,0.401-2.741,0.89-4.045,1.421
			c1.365-5.325,2.077-10.843,2.077-16.486c0-26.493-13.816-44.673-32.063-58.658c13.211-1.874,25.471-13.352,25.471-33.651
			c0-1.858-0.145-4.24-0.402-7.392c3.712,2.947,8.412,5.302,14.217,6.621c0.351,0.089,0.676,0.175,0.978,0.256
			c0.345,7.87,0.76,25.284,0.76,49.822C755.468,815.679,755.258,825.499,754.638,835.098z M838.374,733.956
			c3.95-0.114,8.284-0.222,12.672-0.287c0.354,0.755,0.754,1.605,1.207,2.525c-4.45,2.957-8.951,7.82-12.186,15.796
			c-0.541,0.084-1.216,0.169-2.046,0.244C838.099,745.507,838.227,739.232,838.374,733.956z M863.166,831.468
			c-0.275,0.118-0.547,0.241-0.816,0.37c-2.821,1.35-5.935,1.9-10.748,1.9c-5.361,0-9.571-0.476-12.583-1.027
			c-0.041-0.855-0.089-1.818-0.143-2.877c-0.22-4.394-0.534-10.65-0.735-17.48c0.521,0.034,1.057,0.069,1.612,0.107
			c5.223,10.716,14.03,17.615,23.902,18.736C863.436,831.353,863.286,831.417,863.166,831.468z M928.673,831.82
			c-0.137,1.567-0.283,2.735-0.416,3.592c-0.54,0.199-1.213,0.435-2.043,0.71c0.484-6.447-0.118-16.661-6.874-24.903
			c-4.994-6.093-12.338-9.587-20.148-9.587c-1.784,0-3.461,0.159-5.039,0.452c0.058-1.453,0.033-2.934-0.074-4.436
			c-0.261-3.897-0.522-10.511-0.522-16.559c0-5.272,0.251-11.012,0.499-13.955c0.007-0.091,0.015-0.182,0.021-0.272
			c0.285-3.996,0.136-7.708-0.445-11.124c8.424-4.343,15.121-13.653,15.121-27.397c0-1.634-0.092-3.664-0.239-5.851
			c4.428,3.417,9.938,5.922,16.23,7.193c3.44,0.824,4.873,2.049,5.905,3.253c0.361,0.423,0.739,0.831,1.133,1.225
			c0.211,0.21,0.382,0.41,0.519,0.589C932.019,750.612,929.936,814.715,928.673,831.82z M1221.094,852.005
			c-2.638-5.224-7.608-10.387-16.527-14.253c0.263-0.99,0.546-2.018,0.842-3.053c3.23-0.07,7.263-0.117,12.107-0.117
			c5.503,0,10.423,0.062,14.133,0.143c0.611,1.591,1.195,3.175,1.76,4.771C1228.061,842.667,1223.833,846.998,1221.094,852.005z
			 M1618.073,733.956c3.949-0.114,8.283-0.222,12.671-0.287c0.354,0.755,0.755,1.607,1.208,2.527
			c-4.448,2.957-8.949,7.82-12.187,15.795c-0.541,0.083-1.215,0.168-2.043,0.243C1617.8,745.508,1617.927,739.232,1618.073,733.956z
			 M1642.864,831.468c-0.275,0.118-0.547,0.241-0.816,0.37c-2.821,1.35-5.934,1.9-10.745,1.9c-5.364,0-9.575-0.477-12.588-1.028
			c-0.042-0.871-0.091-1.856-0.145-2.938c-0.219-4.38-0.529-10.615-0.729-17.418c0.521,0.034,1.055,0.069,1.607,0.107
			c5.227,10.715,14.034,17.615,23.905,18.736C1643.135,831.352,1642.984,831.417,1642.864,831.468z"/>
	</g>
	<path class="st0" d="M407.132,312.248c0.859-0.862,5.445-3.729,6.878-3.729c1.148,0,6.881,2.007,8.888,3.44
		c5.448,3.44,10.892,6.021,14.907,6.021c4.874,0,7.455-0.862,11.466-5.448c4.588-4.874,7.169-11.755,8.029-23.795
		c1.145-17.773,1.719-48.734,1.719-89.44c0-41.283-0.574-70.522-1.719-84.284c-0.574-5.733-2.293-12.9-16.914-15.481
		c-6.595-1.145-8.888-3.152-8.888-5.448c0-2.293,2.293-3.438,7.74-3.438c8.888,0,19.207,0.859,31.821,0.859
		c10.036,0,21.214-0.859,30.102-0.859c3.44,0,7.74,0.571,7.74,2.867c0,2.867-2.581,4.585-8.6,5.733
		c-11.469,2.293-16.34,6.307-16.34,20.925c0,23.509-1.148,105.209-1.148,129.863c-0.286,34.69-16.34,59.915-30.961,71.096
		c-13.188,10.033-25.228,13.762-32.68,13.762c-9.462,0-18.635-5.733-18.635-11.181C400.537,321.133,404.265,315.115,407.132,312.248
		z"/>
	<path class="st0" d="M730.774,181.237c0,40.135-19.78,68.229-40.706,83.136c-18.062,12.614-41.856,16.626-56.475,16.626
		c-29.242,0-57.049-12.614-74.536-32.68c-15.195-16.914-23.795-40.135-23.795-64.789c0-35.261,15.481-59.627,37.268-77.115
		c14.047-11.466,38.701-20.069,58.767-20.069C686.34,86.346,730.774,126.769,730.774,181.237z M585.43,112.148
		c-12.611,12.328-22.359,33.828-22.359,67.37c0,42.713,31.532,91.736,77.4,91.736c23.795,0,34.69-10.321,37.842-13.762
		c11.466-10.321,24.369-33.542,24.369-67.655c0-31.247-13.476-61.348-34.69-78.548c-11.752-9.462-29.813-15.481-43.001-15.481
		C612.951,95.808,595.466,102.115,585.43,112.148z"/>
	<path class="st0" d="M860.335,91.508c1.719,0.574,3.44,4.874,3.44,5.445c0.571,5.448,2.867,22.076,2.867,23.221
		c0,4.874,0,7.74-2.007,7.74c-2.293,0-5.733-2.004-6.881-6.019c-3.44-10.321-11.181-18.921-14.047-20.64
		c-5.159-4.014-12.04-6.595-20.354-6.595c-19.207,0-32.966,14.336-32.966,33.542c0,20.354,14.618,29.24,39.846,46.153
		c22.073,14.907,39.561,29.813,39.561,55.615c0,14.333-8.026,30.387-23.506,40.42c-9.174,6.021-26.087,10.321-38.987,10.321
		c-9.176,0-28.669-3.155-37.557-7.455c-2.867-1.719-6.593-8.026-6.593-9.174c-1.433-9.745-4.3-22.359-4.3-26.947
		c0-1.145,2.867-5.448,4.014-5.448c2.293,0,6.593,7.455,10.607,16.343c7.452,15.766,26.373,22.933,37.265,22.933
		c19.78,0,34.69-14.047,34.69-34.687c0-12.04-5.736-24.94-35.835-44.149c-24.369-15.766-41.568-32.394-41.568-56.76
		c0-13.473,6.019-26.373,15.766-34.975c8.888-8.026,22.361-14.047,42.427-14.047C840.266,86.346,855.173,90.649,860.335,91.508z"/>
	<path class="st0" d="M949.764,176.363c16.914,0,55.901-0.859,106.643-0.859c1.719,0,2.578-1.722,3.152-7.455
		c0.288-3.726,0.288-40.994-0.574-52.175c-0.859-10.607-2.867-12.9-15.766-16.34c-4.014-1.145-7.166-2.867-7.166-5.448
		c0-2.004,2.867-3.152,8.885-3.152c3.729,0,22.076,0.574,29.242,0.574c9.747,0,22.932-0.859,26.087-0.859
		c4.585,0,8.026,0.859,8.026,3.152c0,1.719-2.293,3.726-8.314,5.159c-12.04,2.867-14.333,8.029-14.907,16.34
		c-1.433,14.621-2.293,45.582-2.293,94.317c0,12.614,1.148,38.128,1.148,42.427c0.574,11.181,3.44,12.328,16.34,16.054
		c4.014,1.433,6.593,3.44,6.593,5.448c0,2.293-2.578,3.152-8.026,3.152c-4.588,0-14.907-0.859-23.795-0.859
		c-6.307,0-27.806,1.719-33.539,1.719c-4.303,0-7.169-0.571-7.169-3.152s3.155-4.3,6.307-5.159
		c15.481-4.588,16.914-7.74,17.776-28.095c0.571-12.04,1.145-31.821,1.145-46.156c0-5.159-1.145-6.019-3.44-6.019
		c-44.435,0-100.909-0.859-106.643-0.288c-0.859,0-3.152,2.581-3.152,4.874c-0.574,7.455,0,44.149,0,52.463
		c0.286,13.473,3.44,18.633,15.481,22.359c6.307,1.722,8.311,2.869,8.6,5.736c0.286,2.293-4.588,2.867-8.314,2.867
		c-2.007,0-19.495-1.148-29.813-1.148c-6.595,0-18.635,1.148-28.38,1.148c-6.307,0-8.603-1.148-8.603-2.867
		c0-2.867,3.44-4.588,6.595-5.448c14.618-3.726,16.914-6.595,18.059-17.773c0.862-11.755,2.581-44.149,2.581-90.876
		c0-5.159,0.574-31.535,0-44.149c-0.574-9.745-2.293-13.759-14.333-16.34c-6.021-1.145-8.029-3.152-8.029-5.448
		c0-2.004,3.729-3.152,8.314-3.152c8.026,0,18.633,0.574,26.087,0.574c12.04,0,20.64-0.574,27.235-0.574
		c6.019,0,9.174,1.433,9.174,3.152c0,2.867-2.295,4.303-8.314,5.448c-13.473,2.581-14.333,6.881-15.195,18.921
		c-0.859,9.459-1.145,47.301-0.859,52.175C946.898,176.078,947.757,176.363,949.764,176.363z"/>
	<path class="st0" d="M1138.667,90.649c12.04,0,18.921,0.859,29.528,0.859c10.607,0,21.499-0.574,27.806-0.574
		c5.448,0,8.888,0.859,8.888,3.152c0,2.295-3.155,4.303-8.602,5.448c-10.319,2.007-15.766,4.874-17.485,16.34
		c-1.433,9.462-1.148,39.275-1.148,79.984c0,32.394,7.166,44.72,16.054,54.753c8.026,8.888,26.661,15.769,41.568,15.769
		c18.633,0,46.442-8.603,53.608-40.135c3.44-15.195,6.307-39.275,6.307-71.955c0-18.635-0.862-33.542-1.148-36.983
		c-0.859-10.892-2.867-14.907-18.921-18.633c-2.867-0.574-6.019-3.155-6.019-5.159c0-1.722,1.719-2.867,6.593-2.867
		c7.167,0,15.195,0.859,24.369,0.859c11.752,0,17.773-0.574,25.799-0.574c4.585,0,7.166,0.859,7.166,3.152
		c0,1.722-2.29,3.729-6.304,5.162c-12.328,3.44-18.062,8.314-18.635,26.373c-0.288,12.328-2.007,44.149-2.581,59.056
		c-1.433,49.882-15.192,75.107-35.835,86.577c-13.185,7.452-28.666,9.171-41.28,9.171c-25.802,0-45.008-10.607-51.889-16.911
		c-16.052-15.195-22.932-36.123-22.932-84.284c0-41.28-0.859-64.215-1.148-67.941c-0.571-5.448-4.585-10.033-15.481-12.328
		c-3.438-0.859-6.593-2.293-6.593-4.874C1130.353,91.794,1134.079,90.649,1138.667,90.649z"/>
	<path class="st0" d="M1429.912,93.801c2.295,7.74,7.166,20.64,12.614,35.547c14.904,41.856,36.409,98.617,41.28,110.371
		c9.462,23.506,14.047,25.799,26.947,28.954c4.585,1.433,6.881,2.867,6.881,4.874s-2.004,3.726-9.171,3.726
		c-9.462,0-23.509-1.433-36.123-1.433c-9.171,0-13.185,0.574-20.351,0.574c-7.167,0-8.891-2.007-8.891-3.44s1.724-3.726,6.881-4.588
		c13.762-2.867,12.614-8.6,11.466-14.618c-2.29-11.755-9.456-30.676-16.052-49.023c-0.286-1.145-1.433-2.867-9.748-2.867
		c-15.766,0-40.994,0.288-47.013,1.148c-1.148,0-2.581,1.433-3.158,2.293c-7.452,18.633-14.904,43.001-14.904,50.168
		c0,3.44,1.148,8.314,14.047,12.328c4.871,1.433,7.737,3.152,7.737,5.159c0,2.867-4.3,3.726-8.023,3.726
		c-4.877,0-12.043-0.859-22.647-0.859c-10.61,0-25.514,1.433-29.819,1.433c-5.156,0-6.59-1.148-6.59-2.867
		c0-1.719,2.004-4.3,6.304-5.733c14.333-4.874,18.062-5.733,26.376-24.369c6.595-14.618,39.275-101.195,51.313-130.437
		c1.724-4.012,2.01-5.733,2.581-7.452c0.286-0.859,0.862-2.581,2.01-4.874c1.719-2.867,4.871-8.314,6.875-11.466
		c2.01-2.293,3.158-3.729,4.591-3.729C1426.474,86.346,1427.616,87.494,1429.912,93.801z M1439.083,186.684
		c-4.871-14.621-19.781-57.623-22.356-61.637c-0.862-1.719-1.433-2.007-2.295,0c-5.162,13.762-20.066,53.897-22.362,62.782
		c-0.286,1.148,0.286,2.007,1.433,2.007c11.466-0.286,35.261,0,44.723-0.859C1438.511,188.977,1439.374,187.544,1439.083,186.684z"
		/>
	<path class="st0" d="M103.973,580.953c0-6.35,13.976-8.471,23.292-12.704c14.4-6.354,19.906-19.906,19.906-35.575v-149.5
		c0-24.14-10.587-24.564-34.727-31.338c-3.813-1.272-6.778-3.389-6.778-7.198c0-5.085,5.93-7.626,14.824-7.626h118.158
		c17.789,0,42.774-2.117,50.4-2.117c6.774,0,10.163,2.117,11.011,5.93c1.693,6.774,3.81,30.07,3.81,34.727
		c0,5.082-1.693,11.012-6.774,11.012c-5.085,0-11.436-7.623-15.249-16.093c-3.385-7.198-13.976-13.976-34.303-13.976h-47.011
		c-11.436,0-13.128,3.389-13.128,8.895l-0.424,69.878c0,10.163,3.813,13.128,9.743,13.128h33.031
		c13.552,0,18.213-4.658,25.836-11.856c4.658-4.237,8.471-10.587,13.128-10.587c3.813,0,4.658,3.385,4.658,8.467
		c0,3.389-1.693,18.213-1.693,24.564c0,6.354,0.424,19.482,0.424,24.14c0,4.237-1.272,11.011-5.506,11.011
		c-5.506,0-11.011-11.856-13.552-16.093c-2.965-4.658-5.93-8.891-14.824-8.891h-41.078c-8.05,0-10.167,2.117-10.167,10.163
		l0.424,52.937c0,16.093,5.506,29.645,19.906,35.999c9.315,4.234,23.292,6.354,23.292,12.704c0,4.237-8.895,6.778-13.552,7.202
		c-2.965,0-30.914-2.541-51.244-2.541c-19.906,0-44.891,2.541-47.855,2.541C113.288,587.731,103.973,585.191,103.973,580.953z"/>
	<path class="st0" d="M329.26,588.155c-5.082,0-13.976-2.965-13.976-7.202c0-6.35,13.976-10.163,23.295-14.397
		c14.397-6.354,13.128-18.213,13.128-33.883v-91.053c0-24.14-3.813-22.871-27.953-29.645c-3.81-1.272-6.774-5.082-6.774-8.895
		c0-5.082,8.471-7.623,14.821-7.623c16.517,0,23.295,1.693,38.54,1.693c14.824,0,62.68-1.693,80.466-1.693
		c6.778,0,6.354-0.424,8.895,8.047c1.272,3.81,2.541,16.517,2.541,20.751c0,4.658-1.693,13.128-7.198,13.128
		s-10.163-4.234-13.976-14.397c-1.272-3.389-6.778-7.626-13.128-7.626h-29.645c-9.319,0-10.167,2.12-10.167,10.167v36.42
		c0,8.471,0.424,16.941,6.778,16.941h21.175c18.634,0,18.634-16.941,27.105-16.941c4.237,0,5.082,8.895,5.082,28.377
		c0,19.058,0,28.797-5.93,28.797c-8.047,0-7.623-18.634-27.105-18.634h-19.479c-5.506,0-7.626-1.272-7.626,13.976v28.797
		c0,9.743,4.237,18.213,14.824,18.213h35.575c8.471,0,13.128-13.132,17.362-23.295c1.696-4.658,6.354-9.315,10.591-9.315
		c5.082,0,9.315,5.082,9.315,15.669c0,13.976-11.436,43.622-18.634,43.622c-28.377,0-58.443-2.541-88.512-2.541
		C358.061,585.615,337.731,588.155,329.26,588.155z"/>
	<path class="st0" d="M666.775,446.702c0,23.292-14.33,41.936-36.423,47.855c-3.273,0.876-4.09,1.938-0.845,4.658
		c31.142,26.137,49.706,65.862,71.147,74.964c15.596,6.62,25.412,7.198,25.412,13.976c0,9.739-9.739,14.821-29.645,14.821
		c-8.895,0-26.737-4.29-38.116-15.669c-20.365-20.365-32.677-42.048-52.941-63.104c-6.753-7.016-13.128-14.397-23.292-14.397
		c-5.082,0-6.354-1.696-6.354,10.587v12.28c0,15.669-0.845,27.529,13.552,33.883c9.319,4.234,23.295,8.047,23.295,14.397
		c0,4.237-8.895,6.778-13.552,7.202c-2.965,0-22.447-2.541-42.774-2.541c-19.906,0-36.423,2.541-39.388,2.541
		c-4.658-0.424-13.976-2.965-13.976-7.202c0-6.35,13.976-10.163,23.295-14.397c14.397-6.354,13.128-18.213,13.128-33.883v-91.053
		c0-24.14-3.813-22.871-27.953-29.645c-3.81-1.272-6.774-5.082-6.774-8.895c0-5.082,8.471-7.623,14.821-7.623
		c16.517,0,23.295,2.117,38.54,2.117c14.824,0,31.762-2.965,47.431-2.965C637.129,394.61,666.775,414.94,666.775,446.702z
		 M589.694,486.511c20.33,0,37.271-17.786,37.271-37.692c0-18.956-17.365-32.186-36.423-32.186c-8.471,0-14.824,4.945-14.824,13.976
		v40.657C575.718,480.161,579.955,486.511,589.694,486.511z"/>
	<path class="st0" d="M887.108,574.603c-16.174,7.402-39.385,16.938-64.797,16.938c-52.937,0-94.442-44.891-94.442-96.983
		c0-58.867,52.092-106.302,111.383-106.302c29.646,0,48.427,7.44,54.633,10.167c5.429,2.383,8.471,9.315,8.471,15.245
		c0,14.625-3.813,36.423-8.05,36.423c-7.198,0-10.598-5.975-15.669-19.906c-4.924-13.531-26.257-20.751-44.042-20.751
		c-39.812,0-63.528,41.078-63.528,81.734c0,39.388,21.599,80.469,60.139,80.469c14.397,0,28.797-8.471,28.797-19.058v-22.447
		c0-9.739-3.81-11.012-27.953-17.786c-3.81-1.272-6.774-5.082-6.774-8.895c0-5.082,8.471-7.623,14.821-7.623
		c16.517,0,23.295,2.117,38.54,2.117c14.824,0,14.4-2.117,28.801-2.117c6.35,0,11.011,2.541,11.011,7.623
		c0,3.813-3.14,7.826-6.354,8.895c-11.253,3.743-15.669,10.163-15.669,17.786v24.564
		C896.427,569.942,899.43,568.961,887.108,574.603z"/>
	<path class="st0" d="M945.106,411.975c-3.81-1.272-6.774-5.082-6.774-8.895c0-5.082,8.471-7.623,14.821-7.623
		c16.517,0,23.295,2.117,38.54,2.117c14.825,0,23.716-2.117,38.116-2.117c6.354,0,14.821,2.541,14.821,7.623
		c0,3.813-2.541,7.623-6.35,8.895c-24.14,6.774-28.801,5.506-28.801,29.645v69.878c0,30.848,23.719,57.598,54.209,57.598
		c35.575,0,54.209-22.447,54.209-55.906v-69.03c0-14.709-11.856-28.377-21.599-30.918c-5.926-1.693-8.891-6.35-8.891-10.163
		c0-5.082,8.471-7.623,14.821-7.623c7.623,0,15.669,2.117,24.564,2.117c8.471,0,20.33-2.117,28.801-2.117
		c6.35,0,14.821,2.541,14.821,7.623c0,3.813-1.693,7.623-7.198,8.895c-20.33,5.506-24.14,15.326-24.14,30.49v58.446
		c0,50.396-34.731,91.477-84.703,91.477c-53.361,0-81.314-44.642-81.314-92.749v-58.019
		C973.058,417.481,969.245,418.75,945.106,411.975z"/>
	<path class="st0" d="M1308.029,395.882c5.506,1.693,9.743,5.506,9.743,8.891c0,12.284-0.424,30.07-6.778,30.07
		c-2.965,0-7.896-0.894-11.86-7.623c-5.159-8.758-16.514-14.4-30.49-14.4c-12.708,0-23.719,8.895-23.719,21.599
		c0,18.638,14.824,26.684,39.812,39.388c35.575,18.21,44.891,32.186,44.891,62.256c0,38.116-42.774,55.478-80.466,55.478
		c-22.023,0-38.908-8.853-41.081-14.821c-2.39-6.564-5.93-23.295-5.93-31.762c0-4.661,2.117-7.202,6.354-7.202
		c10.163,0,22.023,33.458,52.937,33.458c15.249,0,26.26-13.128,26.26-28.377c0-22.868-24.14-34.727-44.894-45.315
		c-23.292-11.436-38.116-28.797-38.116-54.633c0-35.151,36.847-54.633,71.999-54.633
		C1291.936,388.256,1297.866,393.341,1308.029,395.882z"/>
	<path class="st0" d="M1566.771,478.889c0,62.68-51.244,112.652-113.928,112.652c-51.665,0-91.898-42.774-91.898-94.442
		c0-59.291,46.583-108.843,105.874-108.843C1519.76,388.256,1566.771,425.952,1566.771,478.889z M1466.819,572.907
		c38.544,0,56.333-44.891,56.333-83.431c0-40.233-25.836-81.738-66.069-81.738c-34.303,0-52.941,37.692-52.941,71.999
		C1404.143,522.935,1423.621,572.907,1466.819,572.907z"/>
	<path class="st0" d="M1735.3,411.975c-3.617-1.206-6.778-5.082-6.778-8.895c0-5.082,5.082-7.623,11.439-7.623
		c6.778,0,19.058,2.117,30.07,2.117c10.584,0,18.63-2.117,26.677-2.117c6.357,0,12.287,2.541,12.287,7.623
		c0,3.813-3.091,7.976-6.357,8.895c-11.005,3.095-20.747,13.976-20.747,28.797v75.808c0,13.976,2.965,35.151,2.965,44.47
		c0,12.536-0.427,30.49-5.93,30.49c-8.047,0-16.493-5.755-38.964-33.879l-74.115-92.749c-2.222-2.562-3.385,7.198-3.385,18.634
		v49.128c0,15.669-0.848,27.529,13.549,33.883c9.315,4.234,18.21,8.047,18.21,14.397c0,4.237-8.895,6.778-13.549,7.202
		c-2.965,0-12.708-2.541-33.034-2.541c-19.906,0-32.186,2.541-35.151,2.541c-4.661-0.424-13.976-2.965-13.976-7.202
		c0-6.35,13.976-10.163,23.292-14.397c14.397-6.354,13.128-18.213,13.128-33.883v-78.773c0-8.471-0.75-21.935-6.35-27.105
		c-5.292-4.882-12.946-10.633-25.836-14.821c-4.03-1.311-6.778-5.082-6.778-8.895c0-5.082,8.474-7.623,14.824-7.623
		c16.521,0,24.14,2.117,38.537,2.117c8.054,0,15.897,8.341,26.264,21.175l74.536,92.325c3.385,3.813,7.311,11.86,7.198,2.541
		v-71.995C1757.323,423.831,1747.356,415.985,1735.3,411.975z"/>
	<path class="st0" d="M335.921,755.577c1.433,0,2.293,2.867,2.293,3.726c0,1.719-3.152,6.307-6.878,6.307
		c-6.307,0-16.914,0.859-25.228,0.859c-0.859,0-1.722,0.859-2.293,2.293c-9.174,28.954-27.235,94.317-36.409,127.285
		c-8.314,27.806-20.928,34.402-28.38,40.135c-10.607,7.452-26.661,12.614-32.109,12.614c-13.185,0-20.354-6.021-20.066-12.902
		c0-3.726,8.314-13.185,12.326-13.185c1.148-0.288,3.44,0.571,4.588,2.004c5.448,7.169,11.755,11.181,18.633,11.181
		c7.74,0,16.914-4.585,25.514-37.839c9.174-34.116,24.654-90.876,36.409-129.292c0.286-0.571,0-2.293-1.719-2.293l-17.488,0.574
		c-2.007,0-2.867-1.719-2.867-2.867c0-3.44,3.152-6.881,5.445-6.881c5.162,0,14.91-0.286,18.921-0.286
		c0.859,0,1.722-1.433,2.007-2.007c9.459-27.521,26.087-65.937,47.875-80.555c11.466-8.029,20.354-10.607,28.095-10.607
		c14.618,0,21.499,9.174,21.214,18.059c-0.288,12.328-9.462,19.495-14.047,19.495c-1.433,0-2.293-0.859-2.293-2.867
		c0-1.433,0.286-4.3,0.286-6.021c0.286-10.607-4.3-20.354-12.04-20.354c-8.6,0-16.054,4.588-27.235,24.369
		c-7.452,13.473-16.34,38.413-21.785,57.049c-0.288,1.148,0.859,2.867,1.145,2.867L335.921,755.577z"/>
	<path class="st0" d="M422.207,785.676c0,38.128-26.087,70.237-49.882,82.277c-7.166,3.44-14.618,6.019-23.792,6.019
		c-10.895,0-24.943-11.178-24.943-30.673c0-17.488,12.04-53.608,36.123-74.536c9.459-8.311,21.785-15.192,35.547-15.192
		C412.748,753.57,422.207,771.917,422.207,785.676z M372.325,773.924c-13.473,15.481-28.666,50.742-28.666,79.407
		c0,6.595,3.44,12.614,10.892,12.614c4.588,0,10.895-2.867,18.921-12.9c12.328-15.195,30.102-52.463,30.102-78.262
		c0-8.026-2.867-13.762-10.607-13.762C386.372,761.022,379.779,765.036,372.325,773.924z"/>
	<path class="st0" d="M485.266,766.469c0,9.462-6.881,30.102-9.459,36.694c-1.722,5.159,1.433,4.3,5.159-2.007
		c6.881-11.752,15.195-22.933,22.647-31.247c8.314-9.747,16.914-16.34,24.943-16.34c8.6,0,10.892,6.881,10.892,11.755
		c0,11.178-10.033,21.499-13.473,21.499c-2.007,0-3.44-1.433-3.44-6.307c-0.286-5.733-2.867-10.607-5.448-10.607
		c-3.44,0-8.6,3.155-18.921,19.495c-10.892,16.34-35.547,65.36-40.132,74.534c-4.303,8.888-9.462,10.321-12.04,10.321
		c-2.296,0-5.448-1.722-6.595-4.014c-0.574-0.574-0.286-3.726,0-4.3c12.04-30.673,20.069-50.742,29.242-79.407
		c3.152-10.895,0.286-13.473-2.867-13.473c-4.588,0-10.607,4.3-16.054,11.178c-3.155,4.014-5.159,5.733-6.307,5.733
		c-1.722,0-2.293-4.871-1.148-8.311c6.021-16.628,18.921-28.095,30.961-28.095C481.254,753.57,485.266,760.451,485.266,766.469z"/>
	<path class="st0" d="M712.87,698.814c1.722,0.288,3.726,4.874,3.726,8.029c0,3.44,1.722,18.347,1.722,22.647
		c0,8.6-3.726,12.326-7.74,12.326c-2.867,0-5.159-4.585-6.021-6.881c-6.019-17.773-19.78-30.958-36.694-30.958
		c-13.759,0-24.654,12.04-24.654,24.08c0,14.333,8.603,23.506,27.809,33.828c33.539,17.485,53.894,32.966,53.894,59.915
		c0,22.073-14.907,35.261-24.94,41.565c-10.895,6.595-29.242,11.181-41.856,11.181c-20.925,0-37.554-5.159-44.146-8.6
		c-1.719-0.859-5.159-3.152-6.593-6.307c-4.588-9.174-5.448-22.933-5.448-29.813c0-5.733,2.867-11.466,6.593-11.466
		c3.44,0,6.307,3.44,9.747,9.747c10.607,21.214,27.235,32.966,44.149,32.966c10.892,0,24.94-7.74,24.94-23.506
		c0-10.321-2.007-19.495-31.821-36.409c-30.961-16.914-47.59-32.68-47.59-59.627c0-18.635,12.614-32.968,25.516-40.709
		c10.318-5.733,23.792-9.459,39.273-9.459C687.93,691.362,701.977,696.235,712.87,698.814z"/>
	<path class="st0" d="M838.702,696.807c26.087,0,31.535-0.286,38.128-1.433c3.152-0.286,5.159,0.862,6.307,2.581
		c1.719,2.867,4.014,24.08,4.014,30.387c0,6.021-2.869,8.6-4.874,8.6c-4.588,0-7.455-3.44-11.755-12.614
		c-5.159-10.607-9.459-12.326-11.181-12.326c-16.34,0-34.402,0.859-38.413,0.859c-1.148,0-3.44,3.155-3.44,4.588
		c-0.574,6.307-1.148,28.666-1.148,48.446c0,3.729,1.148,7.455,2.867,7.74c2.867,0.574,13.473,0.574,18.347,0.288
		c14.907-0.859,18.921-5.162,22.076-12.614c1.719-4.874,4.3-8.029,7.166-8.029c4.012,0,6.307,4.014,5.733,12.043
		c-0.288,3.438-0.574,9.745-0.574,15.766c0,6.593,0.286,13.759,0.574,18.059c0.574,7.74-3.44,10.61-6.021,10.61
		c-2.293,0-5.733-2.581-8.026-8.314c-2.867-7.166-4.3-9.462-10.321-10.033c-11.752-0.862-15.481-1.148-28.38-1.148
		c-1.433,0-3.44,4.3-3.44,9.747c0,14.047,0.859,28.38,1.148,34.687c0.574,8.314,2.007,12.326,2.867,13.188
		c2.867,3.726,14.621,7.452,31.247,7.452c6.881,0,13.473-0.859,20.069-4.014c6.019-2.578,9.745-6.593,15.766-15.481
		c4.874-6.878,7.455-12.611,11.755-12.611c5.159,0,6.307,8.026,5.159,13.759c-1.722,8.314-8.6,25.802-9.747,28.38
		c-0.859,2.867-7.166,5.448-8.6,5.448c-6.307,0-16.914-1.433-69.089-1.433c-18.062,0-48.449,1.148-60.775,1.148
		c-6.307,0-10.321-1.722-10.321-4.014c0-3.44,2.581-7.166,8.6-8.888c19.495-4.874,20.928-10.319,21.502-17.199
		c0.859-11.755,1.148-19.207,1.148-61.634c0-28.095-0.574-51.315-1.148-56.475c-1.433-8.602-5.733-11.755-17.199-14.621
		c-6.595-1.433-8.314-4.874-8.314-6.881c0-3.726,5.159-5.448,8.885-5.448c4.874,0,30.961,1.433,49.882,1.433H838.702z"/>
	<path class="st0" d="M925.264,694.802c11.466,0,34.113,2.004,49.308,2.004c2.293,0,6.304,2.581,6.878,3.44
		c4.3,6.021,13.762,16.914,27.521,31.821c15.195,16.343,63.641,69.089,71.382,74.822c0.862,0.574,2.866-0.286,3.155-1.433
		c1.433-7.166,2.007-42.713,0.859-63.353c-1.148-21.214-0.286-27.521-21.499-32.109c-6.881-1.719-9.174-6.019-9.174-7.74
		c0-2.007,3.152-5.733,9.745-5.733c8.314,0,10.607,0.286,18.062,0.286c11.755,0,31.247-1.719,36.98-1.719
		c6.021,0,9.747,2.293,9.747,6.307c0,2.581-2.007,4.585-11.181,8.314c-11.178,4.585-13.759,8.026-14.044,12.614
		c-0.574,12.04-2.869,71.381-2.869,93.455c0,12.614,1.148,27.521,1.148,40.709c0,12.04-2.293,18.633-7.166,18.633
		c-6.593,0-13.473-4.585-18.347-10.607c-9.459-11.466-23.506-28.095-31.535-36.98c-10.892-12.614-59.053-65.648-71.667-79.41
		c-1.148-1.145-2.867,0.574-2.867,2.293c-0.288,6.307-0.862,12.902-0.862,23.221c0,12.902,0.574,40.709,0.862,48.449
		c0.859,23.506,3.726,28.954,15.766,33.254c8.888,3.155,11.755,6.021,11.755,10.033c0,3.44-3.729,5.162-9.462,5.162
		c-8.026,0-16.34-1.148-27.806-1.148c-13.473,0-24.08,1.433-27.809,1.433c-7.166,0-10.607-2.581-10.607-5.733
		c0-3.44,3.155-5.733,8.314-7.455c14.907-4.585,18.921-7.452,20.354-24.08c1.433-19.207,3.726-92.31,3.726-101.483
		c0-2.293-1.719-8.026-6.881-13.185c-5.159-6.021-11.466-8.888-17.773-10.321c-6.019-1.148-10.892-4.585-10.892-9.174
		C918.383,697.095,920.676,694.802,925.264,694.802z"/>
	<path class="st0" d="M1251.199,718.882c15.192,41.568,38.987,99.188,46.153,116.676c6.881,15.766,10.321,16.34,22.932,21.214
		c6.595,2.581,8.891,6.593,8.891,9.747c0,2.867-4.3,4.3-9.176,4.3c-10.892,0-29.528-1.433-43.572-1.433
		c-12.614,0-17.776,1.148-27.521,1.148c-7.169,0-9.747-2.867-9.747-4.874c0-3.155,2.578-6.881,8.026-8.888
		c11.181-4.014,11.466-8.885,9.462-15.766c-2.296-7.455-4.874-14.621-8.603-23.221c-0.286-1.148-3.152-4.014-7.452-4.3
		c-5.162-0.574-40.42-0.859-47.875,0.286c-1.433,0.288-4.014,2.867-4.588,4.3c-2.867,7.455-6.878,22.076-6.878,26.661
		c0,4.588,2.867,8.888,13.474,12.328c3.726,1.433,7.452,3.152,7.452,6.593c0.288,1.719-3.44,6.593-10.892,6.593
		c-3.155,0-11.466-0.859-20.354-0.859c-10.321,0-20.066,1.433-31.535,1.433c-6.019,0-10.318-2.293-10.318-5.733
		c0-2.867,2.293-5.733,8.6-7.74c11.755-4.3,17.199-6.881,24.366-21.788c7.74-16.34,31.25-75.97,47.304-118.683
		c0.571-1.148,1.145-3.726,1.433-6.593c0-0.862,1.433-2.869,2.293-3.729c3.44-2.293,14.621-9.747,17.773-12.326
		c1.719-1.722,5.733-3.155,6.881-3.155C1242.311,691.073,1243.745,699.676,1251.199,718.882z M1239.445,792.271
		c-4.3-14.047-17.199-47.301-19.78-51.889c-1.145-1.719-2.867-1.145-3.726,0c-5.159,11.466-16.055,42.716-18.635,51.889
		c-0.286,1.433,0.574,3.44,2.581,3.44c4.3,0.286,32.68,0.286,37.268,0C1238.3,795.712,1239.733,793.416,1239.445,792.271z"/>
	<path class="st0" d="M1467.914,696.807c16.052,0,22.361-1.719,24.08-3.438c3.443-3.729,6.019-6.307,8.029-6.307
		c1.433,0,8.023,4.3,8.023,8.026c0,2.007-3.438,19.495-3.438,38.701c0,5.448-3.729,10.892-8.6,10.892
		c-3.729,0-5.733-6.019-6.304-8.6c-4.305-18.921-9.462-20.066-18.924-21.214c-4.3-0.574-11.181-1.433-33.542-1.433
		c-1.433,0-2.581,2.293-2.867,4.874c-0.571,5.159-2.004,42.713-2.004,60.775c0,17.488-0.286,38.701,0.857,51.027
		c1.433,20.928,6.31,21.502,18.924,26.376c5.162,2.007,9.747,4.012,9.747,7.452c0,5.162-5.733,6.881-11.466,6.881
		c-2.867,0-30.961-1.433-48.161-1.433c-10.895,0-23.795,0.859-31.538,0.859c-6.019,0-10.895-2.578-10.895-6.881
		c0-2.293,2.872-5.733,9.176-7.452c18.347-4.874,23.218-7.74,23.218-24.654c0-6.021,0.862-41.568,0.862-68.803
		c0-17.773,0-34.113,0-42.999c0-2.869-2.296-6.021-3.152-6.021c-7.166,0-24.366,0-30.39,0.286c-6.881,0-14.618,1.148-22.07,21.502
		c-1.724,4.874-4.876,8.6-7.743,8.6c-4.014,0-7.167-4.874-7.167-11.755c0.286-8.885,3.152-21.785,2.867-36.694
		c-0.286-4.3,4.3-8.026,7.167-8.026c0.862,0,3.729,1.433,5.448,3.152c4.877,3.729,8.885,5.448,17.199,5.736
		c11.757,0.571,12.614,0.571,21.79,0.571H1467.914z"/>
	<path class="st0" d="M1618.397,696.807c26.09,0,31.538-0.286,38.128-1.433c3.158-0.286,5.162,0.862,6.31,2.581
		c1.719,2.867,4.014,24.08,4.014,30.387c0,6.021-2.867,8.6-4.877,8.6c-4.585,0-7.452-3.44-11.752-12.614
		c-5.162-10.607-9.462-12.326-11.181-12.326c-16.343,0-34.399,0.859-38.413,0.859c-1.148,0-3.443,3.155-3.443,4.588
		c-0.571,6.307-1.142,28.666-1.142,48.446c0,3.729,1.142,7.455,2.867,7.74c2.867,0.574,13.471,0.574,18.347,0.288
		c14.904-0.859,18.918-5.162,22.07-12.614c1.724-4.874,4.3-8.029,7.166-8.029c4.014,0,6.31,4.014,5.733,12.043
		c-0.286,3.438-0.571,9.745-0.571,15.766c0,6.593,0.286,13.759,0.571,18.059c0.577,7.74-3.438,10.61-6.019,10.61
		c-2.29,0-5.733-2.581-8.029-8.314c-2.867-7.166-4.3-9.462-10.319-10.033c-11.752-0.862-15.481-1.148-28.38-1.148
		c-1.433,0-3.438,4.3-3.438,9.747c0,14.047,0.857,28.38,1.142,34.687c0.577,8.314,2.01,12.326,2.866,13.188
		c2.867,3.726,14.624,7.452,31.252,7.452c6.875,0,13.471-0.859,20.066-4.014c6.019-2.578,9.747-6.593,15.766-15.481
		c4.871-6.878,7.452-12.611,11.752-12.611c5.162,0,6.31,8.026,5.162,13.759c-1.719,8.314-8.6,25.802-9.748,28.38
		c-0.862,2.867-7.166,5.448-8.6,5.448c-6.31,0-16.914-1.433-69.089-1.433c-18.062,0-48.446,1.148-60.775,1.148
		c-6.31,0-10.319-1.722-10.319-4.014c0-3.44,2.575-7.166,8.6-8.888c19.495-4.874,20.928-10.319,21.499-17.199
		c0.862-11.755,1.148-19.207,1.148-61.634c0-28.095-0.577-51.315-1.148-56.475c-1.433-8.602-5.733-11.755-17.199-14.621
		c-6.595-1.433-8.314-4.874-8.314-6.881c0-3.726,5.162-5.448,8.885-5.448c4.876,0,30.961,1.433,49.885,1.433H1618.397z"/>
</g>
</svg>
